# Wavefront OBJ file written 2025-07-14T12:09:03
o cont7_1

# points : 250
# faces  : 496
# zones  : 1
#   0  patch0  (nFaces: 496)

# <points count="250">
v 1.26556 0.142079 -2
v 1.29394 0.13 -2
v 1.29394 1.83104e-16 -2
v 0.699419 0.285425 -2
v 0.730083 0.282068 -2
v -1.0422e-16 -7.149e-18 -2
v 0.760691 0.278237 -2
v 0.791237 0.273934 -2
v 0.972786 0.238272 -2
v 1.00269 0.230701 -2
v 0.51468 0.295603 -2
v 0.483833 0.295635 -2
v 0.452989 0.29519 -2
v 0.545523 0.295096 -2
v 0.576355 0.294113 -2
v 0.607167 0.292653 -2
v 0.821712 0.269161 -2
v 0.85211 0.263917 -2
v 0.882424 0.258206 -2
v 1.34471e-16 -1.17842 -2
v -0.0171243 -1.15407 -2
v -0.0338841 -1.12947 -2
v -0.0502756 -1.10463 -2
v -0.0662953 -1.07954 -2
v -0.0819394 -1.05421 -2
v -0.180655 -0.87082 -2
v -0.193178 -0.843816 -2
v -0.205297 -0.816628 -2
v -0.217009 -0.789263 -2
v -0.228313 -0.761726 -2
v -0.239206 -0.734024 -2
v -0.249684 -0.706163 -2
v -0.259747 -0.678149 -2
v -0.269391 -0.649988 -2
v -0.274997 -0.632466 -2
v 0.36055 0.291 -2
v 0.39134 0.292872 -2
v 0.422156 0.294269 -2
v 0.912646 0.252026 -2
v 0.942769 0.245381 -2
v 1.09165 0.20523 -2
v 1.06213 0.214178 -2
v 1.03247 0.222669 -2
v 1.12103 0.195827 -2
v 1.15026 0.185973 -2
v 1.17933 0.175668 -2
v -0.126585 -0.976883 -2
v -0.140693 -0.950672 -2
v 1.20825 0.164916 -2
v 1.23699 0.153719 -2
v -0.0972046 -1.02866 -2
v -0.112088 -1.00288 -2
v -0.15441 -0.924254 -2
v -0.167731 -0.897635 -2
v -0.299276 -0.323141 -2
v -0.301611 -0.341389 -2
v -0.303477 -0.359691 -2
v -0.289468 -0.26884 -2
v -0.285272 -0.250928 -2
v -0.280618 -0.23313 -2
v -0.275507 -0.215457 -2
v -0.209652 -0.0639409 -2
v -0.200216 -0.0481476 -2
v -0.135384 0.0410571 -2
v -0.123275 0.0549071 -2
v -0.110814 0.0684413 -2
v -0.0980089 0.0816508 -2
v 0.637954 0.290719 -2
v 0.668707 0.288309 -2
v -0.280151 -0.614805 -2
v -0.284849 -0.597018 -2
v -0.289089 -0.579116 -2
v -0.292867 -0.561111 -2
v -0.296181 -0.543015 -2
v -0.299029 -0.52484 -2
v -0.304759 -0.46996 -2
v -0.305727 -0.451588 -2
v -0.306222 -0.433198 -2
v -0.306245 -0.414801 -2
v -0.305794 -0.396409 -2
v -0.304872 -0.378035 -2
v -0.269944 -0.197921 -2
v -0.263932 -0.180534 -2
v -0.257475 -0.163307 -2
v -0.0144518 0.153616 -2
v 0.000510026 0.164321 -2
v -0.301409 -0.506598 -2
v -0.30332 -0.4883 -2
v -0.296472 -0.304959 -2
v -0.293202 -0.286854 -2
v -0.23548 -0.112702 -2
v -0.227289 -0.0962286 -2
v -0.218678 -0.0799714 -2
v -0.250578 -0.146252 -2
v -0.243244 -0.12938 -2
v -0.190378 -0.032602 -2
v -0.180144 -0.0173144 -2
v -0.16952 -0.00229488 -2
v -0.158514 0.0124467 -2
v -0.147133 0.0269005 -2
v 0.25144 0.275005 -2
v 0.269434 0.278837 -2
v 0.28752 0.282205 -2
v 0.305687 0.285107 -2
v -0.084869 0.0945268 -2
v -0.0714025 0.107061 -2
v -0.0576183 0.119245 -2
v -0.0435255 0.13107 -2
v -0.0291335 0.14253 -2
v 0.323922 0.287541 -2
v 0.342214 0.289506 -2
v 0.015742 0.174638 -2
v 0.0312341 0.18456 -2
v 0.046976 0.19408 -2
v 0.146082 0.242441 -2
v 0.163274 0.248991 -2
v 0.180628 0.255097 -2
v 0.198133 0.260755 -2
v 0.0629574 0.203193 -2
v 0.0791678 0.211892 -2
v 0.0955963 0.220172 -2
v 0.112232 0.228027 -2
v 0.129064 0.235452 -2
v 0.215778 0.265962 -2
v 0.233551 0.270713 -2
v -0.0662953 -1.07954 2
v -0.0502756 -1.10463 2
v -1.0422e-16 -7.149e-18 2
v -0.0338841 -1.12947 2
v -0.0171243 -1.15407 2
v 1.34471e-16 -1.17842 2
v 1.03247 0.222669 2
v 1.00269 0.230701 2
v 0.972786 0.238272 2
v 0.942769 0.245381 2
v 0.85211 0.263917 2
v 0.821712 0.269161 2
v 0.791237 0.273934 2
v 0.760691 0.278237 2
v -0.239206 -0.734024 2
v -0.249684 -0.706163 2
v -0.259747 -0.678149 2
v -0.228313 -0.761726 2
v -0.217009 -0.789263 2
v -0.205297 -0.816628 2
v -0.126585 -0.976883 2
v -0.112088 -1.00288 2
v 1.23699 0.153719 2
v 1.29394 1.83104e-16 2
v 1.26556 0.142079 2
v 1.29394 0.13 2
v 0.576355 0.294113 2
v 0.545523 0.295096 2
v -0.193178 -0.843816 2
v -0.180655 -0.87082 2
v -0.167731 -0.897635 2
v -0.15441 -0.924254 2
v -0.140693 -0.950672 2
v -0.0972046 -1.02866 2
v -0.0819394 -1.05421 2
v 1.15026 0.185973 2
v 1.12103 0.195827 2
v 1.09165 0.20523 2
v 1.06213 0.214178 2
v 0.912646 0.252026 2
v 0.882424 0.258206 2
v 0.730083 0.282068 2
v 0.699419 0.285425 2
v 0.668707 0.288309 2
v 0.51468 0.295603 2
v 0.483833 0.295635 2
v 0.452989 0.29519 2
v -0.301611 -0.341389 2
v -0.303477 -0.359691 2
v -0.296181 -0.543015 2
v -0.292867 -0.561111 2
v 1.20825 0.164916 2
v 1.17933 0.175668 2
v 0.637954 0.290719 2
v 0.607167 0.292653 2
v -0.0980089 0.0816508 2
v -0.110814 0.0684413 2
v -0.123275 0.0549071 2
v -0.135384 0.0410571 2
v -0.263932 -0.180534 2
v -0.269944 -0.197921 2
v -0.275507 -0.215457 2
v -0.280618 -0.23313 2
v -0.304759 -0.46996 2
v -0.30332 -0.4883 2
v -0.289089 -0.579116 2
v -0.284849 -0.597018 2
v -0.280151 -0.614805 2
v 0.422156 0.294269 2
v 0.39134 0.292872 2
v 0.36055 0.291 2
v -0.218678 -0.0799714 2
v -0.209652 -0.0639409 2
v -0.200216 -0.0481476 2
v -0.285272 -0.250928 2
v -0.289468 -0.26884 2
v -0.293202 -0.286854 2
v -0.304872 -0.378035 2
v -0.305794 -0.396409 2
v -0.306245 -0.414801 2
v -0.306222 -0.433198 2
v -0.305727 -0.451588 2
v -0.274997 -0.632466 2
v -0.269391 -0.649988 2
v -0.227289 -0.0962286 2
v -0.23548 -0.112702 2
v -0.243244 -0.12938 2
v -0.296472 -0.304959 2
v -0.299276 -0.323141 2
v -0.301409 -0.506598 2
v -0.299029 -0.52484 2
v -0.147133 0.0269005 2
v -0.158514 0.0124467 2
v -0.16952 -0.00229488 2
v -0.180144 -0.0173144 2
v -0.190378 -0.032602 2
v -0.250578 -0.146252 2
v -0.257475 -0.163307 2
v 0.342214 0.289506 2
v 0.323922 0.287541 2
v 0.305687 0.285107 2
v 0.28752 0.282205 2
v 0.269434 0.278837 2
v 0.25144 0.275005 2
v -0.0144518 0.153616 2
v -0.0291335 0.14253 2
v -0.0435255 0.13107 2
v -0.0576183 0.119245 2
v -0.0714025 0.107061 2
v -0.084869 0.0945268 2
v 0.233551 0.270713 2
v 0.215778 0.265962 2
v 0.198133 0.260755 2
v 0.180628 0.255097 2
v 0.163274 0.248991 2
v 0.146082 0.242441 2
v 0.046976 0.19408 2
v 0.0312341 0.18456 2
v 0.129064 0.235452 2
v 0.112232 0.228027 2
v 0.0955963 0.220172 2
v 0.0791678 0.211892 2
v 0.0629574 0.203193 2
v 0.015742 0.174638 2
v 0.000510026 0.164321 2
# </points>

# <faces count="496">
g patch0
f 1 2 3
f 4 5 6
f 5 7 6
f 6 7 8
f 6 9 10
f 11 6 12
f 6 13 12
f 11 14 6
f 14 15 6
f 6 15 16
f 8 17 6
f 17 18 6
f 6 18 19
f 20 21 6
f 21 22 6
f 22 23 6
f 23 24 6
f 6 24 25
f 26 27 6
f 27 28 6
f 6 28 29
f 29 30 6
f 30 31 6
f 6 31 32
f 32 33 6
f 33 34 6
f 6 34 35
f 36 37 6
f 37 38 6
f 6 38 13
f 19 39 6
f 39 40 6
f 6 40 9
f 41 3 42
f 3 6 42
f 42 6 43
f 6 10 43
f 41 44 3
f 44 45 3
f 3 45 46
f 6 47 48
f 46 49 3
f 49 50 3
f 3 50 1
f 25 51 6
f 51 52 6
f 6 52 47
f 48 53 6
f 53 54 6
f 6 54 26
f 55 6 56
f 6 57 56
f 58 59 6
f 59 60 6
f 6 60 61
f 62 63 6
f 64 65 6
f 65 66 6
f 6 66 67
f 16 68 6
f 68 69 6
f 6 69 4
f 35 70 6
f 70 71 6
f 6 71 72
f 72 73 6
f 73 74 6
f 6 74 75
f 76 77 6
f 77 78 6
f 6 78 79
f 79 80 6
f 80 81 6
f 6 81 57
f 61 82 6
f 82 83 6
f 6 83 84
f 85 86 6
f 75 87 6
f 87 88 6
f 6 88 76
f 55 89 6
f 89 90 6
f 6 90 58
f 91 92 6
f 92 93 6
f 6 93 62
f 84 94 6
f 94 95 6
f 6 95 91
f 63 96 6
f 96 97 6
f 6 97 98
f 98 99 6
f 99 100 6
f 6 100 64
f 101 102 6
f 102 103 6
f 6 103 104
f 67 105 6
f 105 106 6
f 6 106 107
f 107 108 6
f 108 109 6
f 6 109 85
f 104 110 6
f 110 111 6
f 6 111 36
f 86 112 6
f 112 113 6
f 6 113 114
f 115 116 6
f 116 117 6
f 6 117 118
f 114 119 6
f 119 120 6
f 6 120 121
f 121 122 6
f 122 123 6
f 6 123 115
f 118 124 6
f 124 125 6
f 6 125 101
f 126 127 128
f 127 129 128
f 129 130 128
f 128 130 131
f 132 133 128
f 133 134 128
f 128 134 135
f 136 137 128
f 137 138 128
f 128 138 139
f 140 128 141
f 128 142 141
f 140 143 128
f 143 144 128
f 128 144 145
f 128 146 147
f 148 149 150
f 149 151 150
f 128 152 153
f 145 154 128
f 154 155 128
f 128 155 156
f 156 157 128
f 157 158 128
f 128 158 146
f 147 159 128
f 159 160 128
f 128 160 126
f 161 162 149
f 162 163 149
f 149 163 128
f 163 164 128
f 128 164 132
f 135 165 128
f 165 166 128
f 128 166 136
f 139 167 128
f 167 168 128
f 128 168 169
f 153 170 128
f 170 171 128
f 128 171 172
f 173 174 128
f 128 175 176
f 148 177 149
f 177 178 149
f 149 178 161
f 169 179 128
f 179 180 128
f 128 180 152
f 181 182 128
f 182 183 128
f 128 183 184
f 185 186 128
f 186 187 128
f 128 187 188
f 128 189 190
f 176 191 128
f 191 192 128
f 128 192 193
f 172 194 128
f 194 195 128
f 128 195 196
f 197 128 198
f 128 199 198
f 188 200 128
f 200 201 128
f 128 201 202
f 174 203 128
f 203 204 128
f 128 204 205
f 205 206 128
f 206 207 128
f 128 207 189
f 193 208 128
f 208 209 128
f 128 209 142
f 197 210 128
f 210 211 128
f 128 211 212
f 202 213 128
f 213 214 128
f 128 214 173
f 190 215 128
f 215 216 128
f 128 216 175
f 184 217 128
f 217 218 128
f 128 218 219
f 219 220 128
f 220 221 128
f 128 221 199
f 212 222 128
f 222 223 128
f 128 223 185
f 196 224 128
f 224 225 128
f 128 225 226
f 226 227 128
f 227 228 128
f 128 228 229
f 230 231 128
f 231 232 128
f 128 232 233
f 233 234 128
f 234 235 128
f 128 235 181
f 229 236 128
f 236 237 128
f 128 237 238
f 238 239 128
f 239 240 128
f 128 240 241
f 128 242 243
f 241 244 128
f 244 245 128
f 128 245 246
f 246 247 128
f 247 248 128
f 128 248 242
f 243 249 128
f 249 250 128
f 128 250 230
f 151 149 2
f 149 3 2
f 149 128 3
f 128 6 3
f 151 2 1
f 151 1 150
f 1 50 150
f 150 50 148
f 50 49 148
f 148 49 177
f 49 46 177
f 177 46 178
f 46 45 178
f 178 45 161
f 45 44 161
f 161 44 162
f 44 41 162
f 162 41 163
f 41 42 163
f 163 42 164
f 42 43 164
f 164 43 132
f 43 10 132
f 132 10 133
f 10 9 133
f 133 9 134
f 9 40 134
f 134 40 135
f 40 39 135
f 135 39 165
f 39 19 165
f 165 19 166
f 19 18 166
f 166 18 136
f 18 17 136
f 136 17 137
f 17 8 137
f 137 8 138
f 8 7 138
f 138 7 139
f 7 5 139
f 139 5 167
f 5 4 167
f 167 4 168
f 4 69 168
f 168 69 169
f 69 68 169
f 169 68 179
f 68 16 179
f 179 16 180
f 16 15 180
f 180 15 152
f 15 14 152
f 152 14 153
f 14 11 153
f 153 11 170
f 11 12 170
f 170 12 171
f 12 13 171
f 171 13 172
f 13 38 172
f 172 38 194
f 38 37 194
f 194 37 195
f 37 36 195
f 195 36 196
f 196 36 111
f 196 111 224
f 111 110 224
f 224 110 225
f 110 104 225
f 225 104 226
f 104 103 226
f 226 103 227
f 103 102 227
f 227 102 228
f 102 101 228
f 228 101 229
f 101 125 229
f 229 125 236
f 125 124 236
f 236 124 237
f 124 118 237
f 237 118 238
f 118 117 238
f 238 117 239
f 117 116 239
f 239 116 240
f 116 115 240
f 240 115 241
f 115 123 241
f 241 123 244
f 123 122 244
f 244 122 245
f 122 121 245
f 245 121 246
f 121 120 246
f 246 120 247
f 120 119 247
f 247 119 248
f 119 114 248
f 248 114 242
f 114 113 242
f 242 113 243
f 113 112 243
f 243 112 249
f 112 86 249
f 249 86 250
f 86 85 250
f 250 85 230
f 85 109 230
f 230 109 231
f 109 108 231
f 231 108 232
f 108 107 232
f 232 107 233
f 107 106 233
f 233 106 234
f 106 105 234
f 234 105 235
f 105 67 235
f 235 67 181
f 67 66 181
f 181 66 182
f 66 65 182
f 182 65 183
f 65 64 183
f 183 64 184
f 64 100 184
f 184 100 217
f 100 99 217
f 217 99 218
f 99 98 218
f 218 98 219
f 98 97 219
f 219 97 220
f 97 96 220
f 220 96 221
f 96 63 221
f 221 63 199
f 63 62 199
f 199 62 198
f 62 93 198
f 198 93 197
f 93 92 197
f 197 92 210
f 92 91 210
f 210 91 211
f 91 95 211
f 211 95 212
f 95 94 212
f 212 94 222
f 94 84 222
f 222 84 223
f 84 83 223
f 223 83 185
f 83 82 185
f 185 82 186
f 82 61 186
f 186 61 187
f 61 60 187
f 187 60 188
f 60 59 188
f 188 59 200
f 59 58 200
f 200 58 201
f 58 90 201
f 201 90 202
f 90 89 202
f 202 89 213
f 89 55 213
f 213 55 214
f 55 56 214
f 214 56 173
f 56 57 173
f 173 57 174
f 57 81 174
f 174 81 203
f 81 80 203
f 203 80 204
f 80 79 204
f 204 79 205
f 79 78 205
f 205 78 206
f 78 77 206
f 206 77 207
f 77 76 207
f 207 76 189
f 76 88 189
f 189 88 190
f 88 87 190
f 190 87 215
f 87 75 215
f 215 75 216
f 75 74 216
f 216 74 175
f 74 73 175
f 175 73 176
f 73 72 176
f 176 72 191
f 72 71 191
f 191 71 192
f 71 70 192
f 192 70 193
f 70 35 193
f 193 35 208
f 35 34 208
f 208 34 209
f 209 34 33
f 209 33 142
f 33 32 142
f 142 32 141
f 32 31 141
f 141 31 140
f 31 30 140
f 140 30 143
f 30 29 143
f 143 29 144
f 29 28 144
f 144 28 145
f 28 27 145
f 145 27 154
f 27 26 154
f 154 26 155
f 26 54 155
f 155 54 156
f 54 53 156
f 156 53 157
f 53 48 157
f 157 48 158
f 48 47 158
f 158 47 146
f 47 52 146
f 146 52 147
f 52 51 147
f 147 51 159
f 51 25 159
f 159 25 160
f 25 24 160
f 160 24 126
f 24 23 126
f 126 23 127
f 23 22 127
f 127 22 129
f 22 21 129
f 129 21 130
f 21 20 130
f 130 20 131
f 128 131 6
f 131 20 6
# </faces>
