# Wavefront OBJ file written 2025-08-04T14:46:53
o V_mid_1

# points : 352
# faces  : 700
# zones  : 1
#   0  patch0  (nFaces: 700)

# <points count="352">
v -0.000420285 0.974994 -59.1693
v -0.000420285 0.801625 -71.1687
v 2.54936 0.974994 -59.1693
v 2.54936 0.801625 -71.1687
v -0.502404 -0.43501 -71.1637
v -0.502404 -0.386356 -59.1638
v -0.513734 -0.362945 -59.1639
v -0.513734 -0.411599 -71.1638
v -0.524638 -0.339331 -59.164
v -0.524638 -0.387985 -71.1639
v -0.535111 -0.315524 -59.1641
v -0.535111 -0.364178 -71.164
v -0.545149 -0.29153 -59.1642
v -0.545149 -0.340184 -71.1641
v -0.55475 -0.267357 -59.1643
v -0.55475 -0.316011 -71.1642
v -0.56391 -0.243015 -59.1644
v -0.56391 -0.291669 -71.1643
v -0.572626 -0.218509 -59.1645
v -0.572626 -0.267163 -71.1644
v -0.580896 -0.19385 -59.1646
v -0.580896 -0.242504 -71.1645
v -0.588716 -0.169044 -59.1647
v -0.588716 -0.217698 -71.1646
v -0.596085 -0.144101 -59.1648
v -0.596085 -0.192755 -71.1647
v -0.602999 -0.119027 -59.1649
v -0.602999 -0.167681 -71.1648
v -0.609456 -0.0938324 -59.165
v -0.609456 -0.142486 -71.1649
v -0.615455 -0.0685244 -59.1651
v -0.615455 -0.117178 -71.165
v -0.620992 -0.0431116 -59.1652
v -0.620992 -0.0917656 -71.1651
v -0.626068 -0.0176024 -59.1653
v -0.626068 -0.0662564 -71.1652
v -0.630678 0.00799484 -59.1654
v -0.630678 -0.0406592 -71.1653
v -0.634824 0.0336716 -59.1655
v -0.634824 -0.0149824 -71.1654
v -0.638501 0.0594194 -59.1656
v -0.638501 0.0107654 -71.1655
v -0.641711 0.0852298 -59.1657
v -0.641711 0.0365758 -71.1656
v -0.644451 0.111094 -59.1658
v -0.644451 0.0624403 -71.1657
v -0.646721 0.137004 -59.1659
v -0.646721 0.0883502 -71.1658
v -0.64852 0.162951 -59.166
v -0.64852 0.114297 -71.1659
v -0.649847 0.188926 -59.1661
v -0.649847 0.140272 -71.166
v -0.650702 0.214922 -59.1662
v -0.650702 0.166268 -71.1661
v -0.651084 0.240928 -59.1663
v -0.651084 0.192274 -71.1662
v -0.650994 0.266937 -59.1664
v -0.650994 0.218283 -71.1663
v -0.650431 0.29294 -59.1665
v -0.650431 0.244286 -71.1664
v -0.649397 0.318929 -59.1666
v -0.649397 0.270275 -71.1665
v -0.64789 0.344894 -59.1667
v -0.64789 0.29624 -71.1666
v -0.645911 0.370828 -59.1669
v -0.645911 0.322174 -71.1668
v -0.643462 0.396722 -59.167
v -0.643462 0.348068 -71.1669
v -0.640543 0.422566 -59.1671
v -0.640543 0.373912 -71.167
v -0.637155 0.448354 -59.1672
v -0.637155 0.3997 -71.1671
v -0.633299 0.474076 -59.1673
v -0.633299 0.425422 -71.1672
v -0.628976 0.499723 -59.1674
v -0.628976 0.451069 -71.1673
v -0.624188 0.525288 -59.1675
v -0.624188 0.476634 -71.1674
v -0.618936 0.550761 -59.1676
v -0.618936 0.502107 -71.1675
v -0.613222 0.576135 -59.1677
v -0.613222 0.527481 -71.1676
v -0.607049 0.601401 -59.1678
v -0.607049 0.552747 -71.1677
v -0.600417 0.626551 -59.1679
v -0.600417 0.577897 -71.1678
v -0.593329 0.651576 -59.168
v -0.593329 0.602921 -71.1679
v -0.585789 0.676468 -59.1681
v -0.585789 0.627814 -71.168
v -0.577797 0.701218 -59.1682
v -0.577797 0.652564 -71.1681
v -0.569356 0.72582 -59.1683
v -0.569356 0.677166 -71.1682
v -0.560471 0.750264 -59.1684
v -0.560471 0.70161 -71.1683
v -0.551142 0.774543 -59.1685
v -0.551142 0.725889 -71.1684
v -0.541374 0.798648 -59.1686
v -0.541374 0.749994 -71.1685
v -0.53117 0.822572 -59.1687
v -0.53117 0.773918 -71.1686
v -0.520532 0.846307 -59.1688
v -0.520532 0.797653 -71.1687
v -0.509466 0.869844 -59.1689
v -0.509466 0.82119 -71.1688
v -0.497973 0.893177 -59.169
v -0.497973 0.844523 -71.1689
v -0.486059 0.916296 -59.1691
v -0.486059 0.867642 -71.169
v -0.473726 0.939196 -59.1692
v -0.473726 0.890542 -71.1691
v -0.46098 0.961868 -59.1693
v -0.46098 0.913214 -71.1692
v -0.447823 0.984304 -59.1693
v -0.447823 0.93565 -71.1692
v -0.434262 1.0065 -59.1694
v -0.434262 0.957844 -71.1693
v -0.420299 1.02844 -59.1695
v -0.420299 0.979787 -71.1694
v -0.40594 1.05013 -59.1696
v -0.40594 1.00147 -71.1695
v -0.391189 1.07155 -59.1697
v -0.391189 1.0229 -71.1696
v -0.376052 1.0927 -59.1698
v -0.376052 1.04405 -71.1697
v -0.360532 1.11357 -59.1699
v -0.360532 1.06492 -71.1698
v -0.344637 1.13416 -59.1699
v -0.344637 1.0855 -71.1698
v -0.328369 1.15445 -59.17
v -0.328369 1.1058 -71.1699
v -0.311736 1.17445 -59.1701
v -0.311736 1.12579 -71.17
v -0.294742 1.19414 -59.1702
v -0.294742 1.14548 -71.1701
v -0.277394 1.21352 -59.1703
v -0.277394 1.16486 -71.1702
v -0.259696 1.23258 -59.1703
v -0.259696 1.18392 -71.1702
v -0.241655 1.25131 -59.1704
v -0.241655 1.20266 -71.1703
v -0.223276 1.26971 -59.1705
v -0.223276 1.22106 -71.1704
v -0.204566 1.28778 -59.1706
v -0.204566 1.23913 -71.1705
v -0.185531 1.30551 -59.1706
v -0.185531 1.25685 -71.1705
v -0.166177 1.32288 -59.1707
v -0.166177 1.27423 -71.1706
v -0.146511 1.3399 -59.1708
v -0.146511 1.29125 -71.1707
v -0.126539 1.35656 -59.1708
v -0.126539 1.30791 -71.1708
v -0.106267 1.37286 -59.1709
v -0.106267 1.32421 -71.1708
v -0.0857023 1.38878 -59.171
v -0.0857023 1.34013 -71.1709
v -0.0648519 1.40433 -59.171
v -0.0648519 1.35568 -71.1709
v -0.0437225 1.4195 -59.1711
v -0.0437225 1.37084 -71.171
v -0.022321 1.43428 -59.1712
v -0.022321 1.38563 -71.1711
v -0.000654591 1.44867 -59.1712
v -0.000654591 1.40001 -71.1711
v 0.0212697 1.46266 -59.1713
v 0.0212697 1.41401 -71.1712
v 0.0434446 1.47625 -59.1713
v 0.0434446 1.4276 -71.1712
v 0.0658628 1.48944 -59.1714
v 0.0658628 1.44079 -71.1713
v 0.0885168 1.50222 -59.1714
v 0.0885168 1.45357 -71.1713
v 0.111399 1.51458 -59.1715
v 0.111399 1.46593 -71.1714
v 0.134503 1.52653 -59.1715
v 0.134503 1.47788 -71.1714
v 0.157819 1.53806 -59.1716
v 0.157819 1.4894 -71.1715
v 0.181341 1.54916 -59.1716
v 0.181341 1.5005 -71.1715
v 0.205061 1.55983 -59.1717
v 0.205061 1.51117 -71.1716
v 0.228971 1.57006 -59.1717
v 0.228971 1.52141 -71.1716
v 0.253063 1.57986 -59.1718
v 0.253063 1.53121 -71.1717
v 0.277329 1.58923 -59.1718
v 0.277329 1.54057 -71.1717
v 0.301761 1.59815 -59.1718
v 0.301761 1.54949 -71.1717
v 0.326351 1.60662 -59.1719
v 0.326351 1.55797 -71.1718
v 0.351091 1.61465 -59.1719
v 0.351091 1.56599 -71.1718
v 0.375972 1.62222 -59.1719
v 0.375972 1.57357 -71.1718
v 0.400988 1.62935 -59.172
v 0.400988 1.58069 -71.1719
v 0.426128 1.63601 -59.172
v 0.426128 1.58736 -71.1719
v 0.451385 1.64222 -59.172
v 0.451385 1.59357 -71.1719
v 0.476752 1.64797 -59.172
v 0.476752 1.59932 -71.1719
v 0.502218 1.65326 -59.1721
v 0.502218 1.6046 -71.172
v 0.527776 1.65808 -59.1721
v 0.527776 1.60943 -71.172
v 0.553418 1.66244 -59.1721
v 0.553418 1.61379 -71.172
v 0.579134 1.66633 -59.1721
v 0.579134 1.61768 -71.172
v 0.604917 1.66976 -59.1721
v 0.604917 1.6211 -71.172
v 0.630758 1.67271 -59.1721
v 0.630758 1.62406 -71.172
v 0.656648 1.6752 -59.1721
v 0.656648 1.62654 -71.172
v 0.68258 1.67721 -59.1721
v 0.68258 1.62856 -71.1721
v -0.0385203 -1.16204 -71.1607
v -0.0385203 -1.11339 -59.1608
v -0.0653709 -1.07954 -59.161
v -0.0653709 -1.12819 -71.1609
v -0.0918541 -1.0454 -59.1611
v -0.0918541 -1.09406 -71.161
v -0.117967 -1.01098 -59.1613
v -0.117967 -1.05963 -71.1611
v -0.143706 -0.97628 -59.1614
v -0.143706 -1.02493 -71.1613
v -0.169068 -0.941303 -59.1615
v -0.169068 -0.989957 -71.1614
v -0.194051 -0.906054 -59.1617
v -0.194051 -0.954708 -71.1616
v -0.218651 -0.870537 -59.1618
v -0.218651 -0.919191 -71.1617
v -0.242866 -0.834756 -59.162
v -0.242866 -0.88341 -71.1619
v -0.266693 -0.798715 -59.1621
v -0.266693 -0.847369 -71.162
v -0.290129 -0.762419 -59.1623
v -0.290129 -0.811073 -71.1622
v -0.313171 -0.725872 -59.1624
v -0.313171 -0.774526 -71.1623
v -0.335817 -0.689078 -59.1626
v -0.335817 -0.737732 -71.1625
v -0.358063 -0.652041 -59.1627
v -0.358063 -0.700695 -71.1626
v -0.379908 -0.614766 -59.1629
v -0.379908 -0.66342 -71.1628
v -0.401349 -0.577257 -59.163
v -0.401349 -0.625911 -71.1629
v -0.422383 -0.539518 -59.1632
v -0.422383 -0.588172 -71.1631
v -0.443008 -0.501554 -59.1633
v -0.443008 -0.550208 -71.1632
v -0.463221 -0.46337 -59.1635
v -0.463221 -0.512024 -71.1634
v -0.483021 -0.424969 -59.1636
v -0.483021 -0.473623 -71.1635
v 1.50648 1.59982 -71.1719
v 1.5495 1.5936 -71.1719
v 0.769368 1.63356 -71.1721
v 0.812797 1.63535 -71.1721
v 0.943167 1.6379 -71.1721
v 0.986634 1.6378 -71.1721
v 1.0301 1.63723 -71.1721
v 1.07355 1.63619 -71.1721
v 1.11699 1.63467 -71.1721
v 2.01696 1.49451 -71.1715
v 2.05881 1.48275 -71.1715
v -0.000420285 -1.16204 -71.1607
v 0.72596 1.63129 -71.1721
v 1.16041 1.63268 -71.1721
v 1.20381 1.63022 -71.1721
v 1.24718 1.62729 -71.172
v 0.856244 1.63667 -71.1721
v 0.899702 1.63752 -71.1721
v 1.29051 1.62389 -71.172
v 1.3338 1.62002 -71.172
v 1.37705 1.61567 -71.172
v 1.42025 1.61086 -71.172
v 1.4634 1.60557 -71.172
v 1.97499 1.50582 -71.1716
v 2.10052 1.47053 -71.1714
v 2.1421 1.45785 -71.1714
v 2.18354 1.44473 -71.1713
v 2.22483 1.43115 -71.1712
v 2.26597 1.41713 -71.1712
v 2.30696 1.40266 -71.1711
v 2.34779 1.38774 -71.1711
v 2.38845 1.37239 -71.171
v 2.42894 1.35659 -71.1709
v 1.59245 1.58691 -71.1719
v 1.63532 1.57975 -71.1719
v 1.67812 1.57213 -71.1718
v 2.46926 1.34035 -71.1709
v 2.5094 1.32367 -71.1708
v 2.54936 1.30656 -71.1707
v 1.72082 1.56405 -71.1718
v 1.76344 1.5555 -71.1718
v 1.80596 1.54648 -71.1717
v 1.84838 1.53701 -71.1717
v 1.8907 1.52707 -71.1716
v 1.93291 1.51668 -71.1716
v 0.72596 1.67995 -59.1722
v 0.769368 1.68221 -59.1722
v 0.812797 1.68401 -59.1722
v 0.856244 1.68533 -59.1722
v 0.899702 1.68618 -59.1722
v 0.943167 1.68655 -59.1722
v 0.986634 1.68645 -59.1722
v 1.0301 1.68588 -59.1722
v 1.07355 1.68484 -59.1722
v 1.11699 1.68332 -59.1722
v 1.16041 1.68134 -59.1722
v 1.20381 1.67888 -59.1722
v 1.24718 1.67595 -59.1721
v 1.29051 1.67254 -59.1721
v 1.3338 1.66867 -59.1721
v 1.37705 1.66432 -59.1721
v 1.42025 1.65951 -59.1721
v 1.4634 1.65423 -59.1721
v 1.50648 1.64847 -59.172
v 1.5495 1.64225 -59.172
v 1.59245 1.63556 -59.172
v 1.63532 1.62841 -59.172
v 1.67812 1.62079 -59.1719
v 1.72082 1.6127 -59.1719
v 1.76344 1.60415 -59.1719
v 1.80596 1.59514 -59.1718
v 1.84838 1.58566 -59.1718
v 1.8907 1.57573 -59.1717
v 1.93291 1.56533 -59.1717
v 1.97499 1.55448 -59.1716
v 2.01696 1.54317 -59.1716
v 2.05881 1.5314 -59.1716
v 2.10052 1.51918 -59.1715
v 2.1421 1.50651 -59.1715
v 2.18354 1.49338 -59.1714
v 2.22483 1.47981 -59.1713
v 2.26597 1.46578 -59.1713
v 2.30696 1.45131 -59.1712
v 2.34779 1.4364 -59.1712
v 2.38845 1.42104 -59.1711
v 2.42894 1.40524 -59.171
v 2.46926 1.389 -59.171
v 2.5094 1.37233 -59.1709
v 2.54936 1.35521 -59.1708
v -0.000420285 -1.11339 -59.1608
# </points>

# <faces count="700">
g patch0
f 1 2 3
f 2 4 3
f 5 6 7
f 5 7 8
f 7 9 8
f 8 9 10
f 9 11 10
f 10 11 12
f 11 13 12
f 12 13 14
f 13 15 14
f 14 15 16
f 15 17 16
f 16 17 18
f 17 19 18
f 18 19 20
f 19 21 20
f 20 21 22
f 21 23 22
f 22 23 24
f 23 25 24
f 24 25 26
f 25 27 26
f 26 27 28
f 27 29 28
f 28 29 30
f 29 31 30
f 30 31 32
f 31 33 32
f 32 33 34
f 33 35 34
f 34 35 36
f 35 37 36
f 36 37 38
f 37 39 38
f 38 39 40
f 39 41 40
f 40 41 42
f 41 43 42
f 42 43 44
f 43 45 44
f 44 45 46
f 45 47 46
f 46 47 48
f 47 49 48
f 48 49 50
f 49 51 50
f 50 51 52
f 51 53 52
f 52 53 54
f 53 55 54
f 54 55 56
f 55 57 56
f 56 57 58
f 57 59 58
f 58 59 60
f 59 61 60
f 60 61 62
f 61 63 62
f 62 63 64
f 63 65 64
f 64 65 66
f 65 67 66
f 66 67 68
f 67 69 68
f 68 69 70
f 69 71 70
f 70 71 72
f 71 73 72
f 72 73 74
f 73 75 74
f 74 75 76
f 75 77 76
f 76 77 78
f 77 79 78
f 78 79 80
f 79 81 80
f 80 81 82
f 81 83 82
f 82 83 84
f 83 85 84
f 84 85 86
f 85 87 86
f 86 87 88
f 87 89 88
f 88 89 90
f 89 91 90
f 90 91 92
f 91 93 92
f 92 93 94
f 93 95 94
f 94 95 96
f 95 97 96
f 96 97 98
f 97 99 98
f 98 99 100
f 99 101 100
f 100 101 102
f 101 103 102
f 102 103 104
f 103 105 104
f 104 105 106
f 105 107 106
f 106 107 108
f 107 109 108
f 108 109 110
f 109 111 110
f 110 111 112
f 111 113 112
f 112 113 114
f 113 115 114
f 114 115 116
f 115 117 116
f 116 117 118
f 117 119 118
f 118 119 120
f 119 121 120
f 120 121 122
f 121 123 122
f 122 123 124
f 123 125 124
f 124 125 126
f 125 127 126
f 126 127 128
f 127 129 128
f 128 129 130
f 129 131 130
f 130 131 132
f 131 133 132
f 132 133 134
f 133 135 134
f 134 135 136
f 135 137 136
f 136 137 138
f 137 139 138
f 138 139 140
f 139 141 140
f 140 141 142
f 141 143 142
f 142 143 144
f 143 145 144
f 144 145 146
f 145 147 146
f 146 147 148
f 147 149 148
f 148 149 150
f 149 151 150
f 150 151 152
f 151 153 152
f 152 153 154
f 153 155 154
f 154 155 156
f 155 157 156
f 156 157 158
f 157 159 158
f 158 159 160
f 159 161 160
f 160 161 162
f 161 163 162
f 162 163 164
f 163 165 164
f 164 165 166
f 165 167 166
f 166 167 168
f 167 169 168
f 168 169 170
f 169 171 170
f 170 171 172
f 171 173 172
f 172 173 174
f 173 175 174
f 174 175 176
f 175 177 176
f 176 177 178
f 177 179 178
f 178 179 180
f 179 181 180
f 180 181 182
f 181 183 182
f 182 183 184
f 183 185 184
f 184 185 186
f 185 187 186
f 186 187 188
f 187 189 188
f 188 189 190
f 189 191 190
f 190 191 192
f 191 193 192
f 192 193 194
f 193 195 194
f 194 195 196
f 195 197 196
f 196 197 198
f 197 199 198
f 198 199 200
f 199 201 200
f 200 201 202
f 201 203 202
f 202 203 204
f 203 205 204
f 204 205 206
f 205 207 206
f 206 207 208
f 207 209 208
f 208 209 210
f 209 211 210
f 210 211 212
f 211 213 212
f 212 213 214
f 213 215 214
f 214 215 216
f 215 217 216
f 216 217 218
f 217 219 218
f 218 219 220
f 219 221 220
f 220 221 222
f 223 224 225
f 223 225 226
f 225 227 226
f 226 227 228
f 227 229 228
f 228 229 230
f 229 231 230
f 230 231 232
f 231 233 232
f 232 233 234
f 233 235 234
f 234 235 236
f 235 237 236
f 236 237 238
f 237 239 238
f 238 239 240
f 239 241 240
f 240 241 242
f 241 243 242
f 242 243 244
f 243 245 244
f 244 245 246
f 245 247 246
f 246 247 248
f 247 249 248
f 248 249 250
f 249 251 250
f 250 251 252
f 251 253 252
f 252 253 254
f 253 255 254
f 254 255 256
f 255 257 256
f 256 257 258
f 257 259 258
f 258 259 260
f 259 261 260
f 260 261 262
f 261 6 262
f 262 6 5
f 263 264 2
f 2 265 266
f 2 267 268
f 268 269 2
f 269 270 2
f 2 270 271
f 272 273 4
f 274 223 2
f 223 226 2
f 226 228 2
f 228 230 2
f 2 230 232
f 220 222 2
f 222 275 2
f 2 275 265
f 271 276 2
f 276 277 2
f 2 277 278
f 250 252 2
f 252 254 2
f 2 254 256
f 266 279 2
f 279 280 2
f 2 280 267
f 278 281 2
f 281 282 2
f 2 282 283
f 283 284 2
f 284 285 2
f 2 285 263
f 272 4 286
f 273 287 4
f 287 288 4
f 4 288 289
f 289 290 4
f 290 291 4
f 4 291 292
f 232 234 2
f 234 236 2
f 2 236 238
f 238 240 2
f 240 242 2
f 2 242 244
f 244 246 2
f 246 248 2
f 2 248 250
f 256 258 2
f 258 260 2
f 2 260 262
f 292 293 4
f 293 294 4
f 4 294 295
f 264 296 2
f 296 297 2
f 2 297 298
f 295 299 4
f 299 300 4
f 4 300 301
f 210 212 2
f 212 214 2
f 298 302 2
f 302 303 2
f 2 303 304
f 192 194 2
f 194 196 2
f 2 196 198
f 214 216 2
f 216 218 2
f 2 218 220
f 304 305 2
f 305 306 2
f 2 306 4
f 306 307 4
f 4 307 286
f 126 128 2
f 128 130 2
f 2 130 132
f 154 156 2
f 156 158 2
f 2 158 160
f 2 166 168
f 168 170 2
f 170 172 2
f 2 172 174
f 198 200 2
f 200 202 2
f 2 202 204
f 60 62 2
f 62 64 2
f 132 134 2
f 134 136 2
f 2 136 138
f 160 162 2
f 162 164 2
f 2 164 166
f 204 206 2
f 206 208 2
f 2 208 210
f 262 5 2
f 5 8 2
f 2 8 10
f 34 36 2
f 36 38 2
f 2 38 40
f 2 52 54
f 148 2 146
f 2 144 146
f 148 150 2
f 150 152 2
f 2 152 154
f 174 176 2
f 176 178 2
f 2 178 180
f 186 188 2
f 188 190 2
f 2 190 192
f 40 42 2
f 42 44 2
f 2 44 46
f 54 56 2
f 56 58 2
f 2 58 60
f 64 66 2
f 66 68 2
f 2 68 70
f 70 72 2
f 72 74 2
f 2 74 76
f 100 102 2
f 138 140 2
f 140 142 2
f 2 142 144
f 180 182 2
f 182 184 2
f 2 184 186
f 10 12 2
f 12 14 2
f 2 14 16
f 28 30 2
f 30 32 2
f 2 32 34
f 46 48 2
f 48 50 2
f 2 50 52
f 120 122 2
f 122 124 2
f 2 124 126
f 76 78 2
f 78 80 2
f 2 80 82
f 108 110 2
f 110 112 2
f 2 112 114
f 114 116 2
f 116 118 2
f 2 118 120
f 16 18 2
f 18 20 2
f 2 20 22
f 22 24 2
f 24 26 2
f 2 26 28
f 82 84 2
f 84 86 2
f 2 86 88
f 102 104 2
f 104 106 2
f 2 106 108
f 88 90 2
f 90 92 2
f 2 92 94
f 94 96 2
f 96 98 2
f 2 98 100
f 222 221 308
f 222 308 275
f 308 309 275
f 275 309 265
f 309 310 265
f 265 310 266
f 310 311 266
f 266 311 279
f 311 312 279
f 279 312 280
f 312 313 280
f 280 313 267
f 313 314 267
f 267 314 268
f 314 315 268
f 268 315 269
f 315 316 269
f 269 316 270
f 316 317 270
f 270 317 271
f 317 318 271
f 271 318 276
f 318 319 276
f 276 319 277
f 319 320 277
f 277 320 278
f 320 321 278
f 278 321 281
f 321 322 281
f 281 322 282
f 322 323 282
f 282 323 283
f 323 324 283
f 283 324 284
f 324 325 284
f 284 325 285
f 325 326 285
f 285 326 263
f 326 327 263
f 263 327 264
f 327 328 264
f 264 328 296
f 328 329 296
f 296 329 297
f 329 330 297
f 297 330 298
f 330 331 298
f 298 331 302
f 331 332 302
f 302 332 303
f 332 333 303
f 303 333 304
f 333 334 304
f 304 334 305
f 334 335 305
f 305 335 306
f 335 336 306
f 306 336 307
f 336 337 307
f 307 337 286
f 337 338 286
f 286 338 272
f 338 339 272
f 272 339 273
f 339 340 273
f 273 340 287
f 340 341 287
f 287 341 288
f 341 342 288
f 288 342 289
f 342 343 289
f 289 343 290
f 343 344 290
f 290 344 291
f 344 345 291
f 291 345 292
f 345 346 292
f 292 346 293
f 346 347 293
f 293 347 294
f 347 348 294
f 294 348 295
f 348 349 295
f 295 349 299
f 349 350 299
f 299 350 300
f 350 351 300
f 300 351 301
f 223 274 224
f 274 352 224
f 301 351 4
f 351 3 4
f 231 229 1
f 309 308 1
f 224 352 225
f 352 1 225
f 225 1 227
f 1 229 227
f 316 315 1
f 7 6 1
f 6 261 1
f 1 261 259
f 253 251 1
f 251 249 1
f 320 319 1
f 315 314 1
f 314 313 1
f 1 313 312
f 207 1 209
f 1 211 209
f 249 247 1
f 247 245 1
f 1 245 243
f 243 241 1
f 241 239 1
f 1 239 237
f 237 235 1
f 235 233 1
f 1 233 231
f 3 351 350
f 3 344 343
f 319 318 1
f 318 317 1
f 1 317 316
f 312 311 1
f 311 310 1
f 1 310 309
f 308 221 1
f 221 219 1
f 1 219 217
f 195 193 1
f 193 191 1
f 1 191 189
f 171 169 1
f 259 257 1
f 257 255 1
f 1 255 253
f 343 342 3
f 342 341 3
f 3 341 340
f 326 325 1
f 325 324 1
f 1 324 323
f 323 322 1
f 322 321 1
f 1 321 320
f 217 215 1
f 215 213 1
f 1 213 211
f 350 349 3
f 349 348 3
f 3 348 347
f 207 205 1
f 205 203 1
f 1 203 201
f 169 167 1
f 167 165 1
f 1 165 163
f 157 155 1
f 155 153 1
f 141 139 1
f 139 137 1
f 1 137 135
f 340 339 3
f 339 338 3
f 3 338 1
f 338 337 1
f 329 1 330
f 1 331 330
f 329 328 1
f 328 327 1
f 1 327 326
f 201 199 1
f 199 197 1
f 1 197 195
f 177 175 1
f 175 173 1
f 1 173 171
f 163 161 1
f 161 159 1
f 1 159 157
f 347 346 3
f 346 345 3
f 3 345 344
f 337 336 1
f 336 335 1
f 1 335 334
f 334 333 1
f 333 332 1
f 1 332 331
f 189 187 1
f 187 185 1
f 1 185 183
f 153 151 1
f 151 149 1
f 1 149 147
f 147 145 1
f 145 143 1
f 1 143 141
f 135 133 1
f 133 131 1
f 1 131 129
f 129 127 1
f 127 125 1
f 1 125 123
f 43 41 1
f 41 39 1
f 1 39 37
f 183 181 1
f 181 179 1
f 1 179 177
f 37 35 1
f 35 33 1
f 1 33 31
f 73 71 1
f 71 69 1
f 1 69 67
f 67 65 1
f 65 63 1
f 1 63 61
f 61 59 1
f 59 57 1
f 1 57 55
f 55 53 1
f 53 51 1
f 1 51 49
f 31 29 1
f 29 27 1
f 1 27 25
f 123 121 1
f 121 119 1
f 1 119 117
f 79 77 1
f 77 75 1
f 1 75 73
f 49 47 1
f 47 45 1
f 1 45 43
f 117 115 1
f 115 113 1
f 1 113 111
f 99 97 1
f 25 23 1
f 23 21 1
f 1 21 19
f 19 17 1
f 17 15 1
f 1 15 13
f 13 11 1
f 11 9 1
f 1 9 7
f 111 109 1
f 109 107 1
f 1 107 105
f 85 83 1
f 83 81 1
f 1 81 79
f 105 103 1
f 103 101 1
f 1 101 99
f 91 89 1
f 89 87 1
f 1 87 85
f 97 95 1
f 95 93 1
f 1 93 91
f 1 352 2
f 352 274 2
# </faces>
