# Wavefront OBJ file written 2025-08-04T14:46:14
o V_bottom_1

# points : 352
# faces  : 700
# zones  : 1
#   0  patch0  (nFaces: 700)

# <points count="352">
v -0.000420285 0.245624 -109.651
v -0.000420285 0.0722549 -121.651
v 2.54936 0.245624 -109.651
v 2.54936 0.0722549 -121.651
v -0.502404 -1.16438 -121.646
v -0.502404 -1.11573 -109.646
v -0.513734 -1.09232 -109.646
v -0.513734 -1.14097 -121.646
v -0.524638 -1.0687 -109.646
v -0.524638 -1.11736 -121.646
v -0.535111 -1.04489 -109.646
v -0.535111 -1.09355 -121.646
v -0.545149 -1.0209 -109.646
v -0.545149 -1.06955 -121.646
v -0.55475 -0.996728 -109.646
v -0.55475 -1.04538 -121.646
v -0.56391 -0.972385 -109.646
v -0.56391 -1.02104 -121.646
v -0.572626 -0.94788 -109.646
v -0.572626 -0.996534 -121.646
v -0.580896 -0.923221 -109.647
v -0.580896 -0.971875 -121.646
v -0.588716 -0.898415 -109.647
v -0.588716 -0.947069 -121.647
v -0.596085 -0.873471 -109.647
v -0.596085 -0.922125 -121.647
v -0.602999 -0.848398 -109.647
v -0.602999 -0.897052 -121.647
v -0.609456 -0.823203 -109.647
v -0.609456 -0.871857 -121.647
v -0.615455 -0.797895 -109.647
v -0.615455 -0.846549 -121.647
v -0.620992 -0.772482 -109.647
v -0.620992 -0.821136 -121.647
v -0.626068 -0.746973 -109.647
v -0.626068 -0.795627 -121.647
v -0.630678 -0.721376 -109.647
v -0.630678 -0.77003 -121.647
v -0.634824 -0.695699 -109.647
v -0.634824 -0.744353 -121.647
v -0.638501 -0.669951 -109.648
v -0.638501 -0.718605 -121.647
v -0.641711 -0.644141 -109.648
v -0.641711 -0.692795 -121.648
v -0.644451 -0.618276 -109.648
v -0.644451 -0.66693 -121.648
v -0.646721 -0.592366 -109.648
v -0.646721 -0.64102 -121.648
v -0.64852 -0.566419 -109.648
v -0.64852 -0.615073 -121.648
v -0.649847 -0.540444 -109.648
v -0.649847 -0.589098 -121.648
v -0.650702 -0.514449 -109.648
v -0.650702 -0.563103 -121.648
v -0.651084 -0.488443 -109.648
v -0.651084 -0.537097 -121.648
v -0.650994 -0.462434 -109.648
v -0.650994 -0.511088 -121.648
v -0.650431 -0.43643 -109.649
v -0.650431 -0.485084 -121.648
v -0.649397 -0.410442 -109.649
v -0.649397 -0.459096 -121.649
v -0.64789 -0.384476 -109.649
v -0.64789 -0.43313 -121.649
v -0.645911 -0.358543 -109.649
v -0.645911 -0.407197 -121.649
v -0.643462 -0.332649 -109.649
v -0.643462 -0.381303 -121.649
v -0.640543 -0.306804 -109.649
v -0.640543 -0.355458 -121.649
v -0.637155 -0.281016 -109.649
v -0.637155 -0.32967 -121.649
v -0.633299 -0.255295 -109.649
v -0.633299 -0.303949 -121.649
v -0.628976 -0.229647 -109.649
v -0.628976 -0.278301 -121.649
v -0.624188 -0.204083 -109.649
v -0.624188 -0.252737 -121.649
v -0.618936 -0.178609 -109.65
v -0.618936 -0.227263 -121.649
v -0.613222 -0.153235 -109.65
v -0.613222 -0.201889 -121.65
v -0.607049 -0.127969 -109.65
v -0.607049 -0.176623 -121.65
v -0.600417 -0.10282 -109.65
v -0.600417 -0.151474 -121.65
v -0.593329 -0.077795 -109.65
v -0.593329 -0.126449 -121.65
v -0.585789 -0.052903 -109.65
v -0.585789 -0.101557 -121.65
v -0.577797 -0.028152 -109.65
v -0.577797 -0.0768061 -121.65
v -0.569356 -0.0035504 -109.65
v -0.569356 -0.0522044 -121.65
v -0.560471 0.0208938 -109.65
v -0.560471 -0.0277602 -121.65
v -0.551142 0.0451726 -109.65
v -0.551142 -0.00348143 -121.65
v -0.541374 0.0692779 -109.651
v -0.541374 0.0206239 -121.65
v -0.53117 0.0932018 -109.651
v -0.53117 0.0445478 -121.651
v -0.520532 0.116936 -109.651
v -0.520532 0.0682823 -121.651
v -0.509466 0.140474 -109.651
v -0.509466 0.0918196 -121.651
v -0.497973 0.163806 -109.651
v -0.497973 0.115152 -121.651
v -0.486059 0.186926 -109.651
v -0.486059 0.138272 -121.651
v -0.473726 0.209825 -109.651
v -0.473726 0.161171 -121.651
v -0.46098 0.232497 -109.651
v -0.46098 0.183843 -121.651
v -0.447823 0.254934 -109.651
v -0.447823 0.20628 -121.651
v -0.434262 0.277127 -109.651
v -0.434262 0.228473 -121.651
v -0.420299 0.299071 -109.652
v -0.420299 0.250417 -121.651
v -0.40594 0.320757 -109.652
v -0.40594 0.272103 -121.652
v -0.391189 0.342179 -109.652
v -0.391189 0.293525 -121.652
v -0.376052 0.363329 -109.652
v -0.376052 0.314675 -121.652
v -0.360532 0.384201 -109.652
v -0.360532 0.335547 -121.652
v -0.344637 0.404788 -109.652
v -0.344637 0.356134 -121.652
v -0.328369 0.425082 -109.652
v -0.328369 0.376428 -121.652
v -0.311736 0.445078 -109.652
v -0.311736 0.396424 -121.652
v -0.294742 0.464768 -109.652
v -0.294742 0.416114 -121.652
v -0.277394 0.484146 -109.652
v -0.277394 0.435492 -121.652
v -0.259696 0.503205 -109.652
v -0.259696 0.454551 -121.652
v -0.241655 0.52194 -109.652
v -0.241655 0.473286 -121.652
v -0.223276 0.540344 -109.653
v -0.223276 0.49169 -121.652
v -0.204566 0.558411 -109.653
v -0.204566 0.509757 -121.652
v -0.185531 0.576136 -109.653
v -0.185531 0.527482 -121.653
v -0.166177 0.593511 -109.653
v -0.166177 0.544857 -121.653
v -0.146511 0.610532 -109.653
v -0.146511 0.561878 -121.653
v -0.126539 0.627193 -109.653
v -0.126539 0.578539 -121.653
v -0.106267 0.643489 -109.653
v -0.106267 0.594835 -121.653
v -0.0857023 0.659413 -109.653
v -0.0857023 0.610759 -121.653
v -0.0648519 0.674961 -109.653
v -0.0648519 0.626307 -121.653
v -0.0437225 0.690128 -109.653
v -0.0437225 0.641474 -121.653
v -0.022321 0.704909 -109.653
v -0.022321 0.656255 -121.653
v -0.000654591 0.719298 -109.653
v -0.000654591 0.670644 -121.653
v 0.0212697 0.733291 -109.653
v 0.0212697 0.684637 -121.653
v 0.0434446 0.746884 -109.653
v 0.0434446 0.69823 -121.653
v 0.0658628 0.760071 -109.653
v 0.0658628 0.711417 -121.653
v 0.0885168 0.77285 -109.653
v 0.0885168 0.724195 -121.653
v 0.111399 0.785214 -109.653
v 0.111399 0.73656 -121.653
v 0.134503 0.797161 -109.654
v 0.134503 0.748507 -121.653
v 0.157819 0.808686 -109.654
v 0.157819 0.760032 -121.653
v 0.181341 0.819785 -109.654
v 0.181341 0.771131 -121.654
v 0.205061 0.830455 -109.654
v 0.205061 0.781801 -121.654
v 0.228971 0.840693 -109.654
v 0.228971 0.792039 -121.654
v 0.253063 0.850495 -109.654
v 0.253063 0.80184 -121.654
v 0.277329 0.859857 -109.654
v 0.277329 0.811203 -121.654
v 0.301761 0.868777 -109.654
v 0.301761 0.820123 -121.654
v 0.326351 0.877251 -109.654
v 0.326351 0.828597 -121.654
v 0.351091 0.885278 -109.654
v 0.351091 0.836624 -121.654
v 0.375972 0.892853 -109.654
v 0.375972 0.844199 -121.654
v 0.400988 0.899976 -109.654
v 0.400988 0.851322 -121.654
v 0.426128 0.906642 -109.654
v 0.426128 0.857988 -121.654
v 0.451385 0.912851 -109.654
v 0.451385 0.864197 -121.654
v 0.476752 0.9186 -109.654
v 0.476752 0.869946 -121.654
v 0.502218 0.923888 -109.654
v 0.502218 0.875234 -121.654
v 0.527776 0.928711 -109.654
v 0.527776 0.880057 -121.654
v 0.553418 0.93307 -109.654
v 0.553418 0.884416 -121.654
v 0.579134 0.936962 -109.654
v 0.579134 0.888308 -121.654
v 0.604917 0.940386 -109.654
v 0.604917 0.891732 -121.654
v 0.630758 0.943341 -109.654
v 0.630758 0.894687 -121.654
v 0.656648 0.945827 -109.654
v 0.656648 0.897173 -121.654
v 0.68258 0.947841 -109.654
v 0.68258 0.899187 -121.654
v -0.0385203 -1.89141 -121.643
v -0.0385203 -1.84276 -109.643
v -0.0653709 -1.80891 -109.643
v -0.0653709 -1.85756 -121.643
v -0.0918541 -1.77477 -109.643
v -0.0918541 -1.82343 -121.643
v -0.117967 -1.74035 -109.643
v -0.117967 -1.78901 -121.643
v -0.143706 -1.70565 -109.643
v -0.143706 -1.7543 -121.643
v -0.169068 -1.67067 -109.644
v -0.169068 -1.71933 -121.643
v -0.194051 -1.63542 -109.644
v -0.194051 -1.68408 -121.644
v -0.218651 -1.59991 -109.644
v -0.218651 -1.64856 -121.644
v -0.242866 -1.56413 -109.644
v -0.242866 -1.61278 -121.644
v -0.266693 -1.52809 -109.644
v -0.266693 -1.57674 -121.644
v -0.290129 -1.49179 -109.644
v -0.290129 -1.54044 -121.644
v -0.313171 -1.45524 -109.644
v -0.313171 -1.5039 -121.644
v -0.335817 -1.41845 -109.645
v -0.335817 -1.4671 -121.644
v -0.358063 -1.38141 -109.645
v -0.358063 -1.43007 -121.645
v -0.379908 -1.34414 -109.645
v -0.379908 -1.39279 -121.645
v -0.401349 -1.30663 -109.645
v -0.401349 -1.35528 -121.645
v -0.422383 -1.26889 -109.645
v -0.422383 -1.31754 -121.645
v -0.443008 -1.23092 -109.645
v -0.443008 -1.27958 -121.645
v -0.463221 -1.19274 -109.645
v -0.463221 -1.24139 -121.645
v -0.483021 -1.15434 -109.646
v -0.483021 -1.20299 -121.646
v 1.50648 0.870448 -121.654
v 1.5495 0.864227 -121.654
v 0.769368 0.904189 -121.654
v 0.812797 0.905982 -121.654
v 0.943167 0.908526 -121.654
v 0.986634 0.908428 -121.654
v 1.0301 0.907858 -121.654
v 1.07355 0.906816 -121.654
v 1.11699 0.9053 -121.654
v 2.01696 0.765142 -121.654
v 2.05881 0.753376 -121.653
v -0.000420285 -1.89141 -121.643
v 0.72596 0.901924 -121.654
v 1.16041 0.903313 -121.654
v 1.20381 0.900853 -121.654
v 1.24718 0.897922 -121.654
v 0.856244 0.907303 -121.654
v 0.899702 0.908151 -121.654
v 1.29051 0.894519 -121.654
v 1.3338 0.890645 -121.654
v 1.37705 0.8863 -121.654
v 1.42025 0.881486 -121.654
v 1.4634 0.876201 -121.654
v 1.97499 0.776453 -121.654
v 2.10052 0.741155 -121.653
v 2.1421 0.728481 -121.653
v 2.18354 0.715356 -121.653
v 2.22483 0.701781 -121.653
v 2.26597 0.687758 -121.653
v 2.30696 0.673288 -121.653
v 2.34779 0.658373 -121.653
v 2.38845 0.643015 -121.653
v 2.42894 0.627216 -121.653
v 1.59245 0.857539 -121.654
v 1.63532 0.850383 -121.654
v 1.67812 0.842762 -121.654
v 2.46926 0.610978 -121.653
v 2.5094 0.594301 -121.653
v 2.54936 0.57719 -121.653
v 1.72082 0.834676 -121.654
v 1.76344 0.826126 -121.654
v 1.80596 0.817113 -121.654
v 1.84838 0.807638 -121.654
v 1.8907 0.797702 -121.654
v 1.93291 0.787307 -121.654
v 0.72596 0.950578 -109.654
v 0.769368 0.952843 -109.654
v 0.812797 0.954636 -109.654
v 0.856244 0.955957 -109.654
v 0.899702 0.956805 -109.654
v 0.943167 0.95718 -109.654
v 0.986634 0.957082 -109.654
v 1.0301 0.956512 -109.654
v 1.07355 0.95547 -109.654
v 1.11699 0.953954 -109.654
v 1.16041 0.951967 -109.654
v 1.20381 0.949507 -109.654
v 1.24718 0.946576 -109.654
v 1.29051 0.943173 -109.654
v 1.3338 0.939299 -109.654
v 1.37705 0.934954 -109.654
v 1.42025 0.93014 -109.654
v 1.4634 0.924855 -109.654
v 1.50648 0.919102 -109.654
v 1.5495 0.912881 -109.654
v 1.59245 0.906193 -109.654
v 1.63532 0.899037 -109.654
v 1.67812 0.891416 -109.654
v 1.72082 0.88333 -109.654
v 1.76344 0.87478 -109.654
v 1.80596 0.865767 -109.654
v 1.84838 0.856292 -109.654
v 1.8907 0.846356 -109.654
v 1.93291 0.835961 -109.654
v 1.97499 0.825107 -109.654
v 2.01696 0.813796 -109.654
v 2.05881 0.80203 -109.654
v 2.10052 0.789809 -109.654
v 2.1421 0.777135 -109.653
v 2.18354 0.76401 -109.653
v 2.22483 0.750435 -109.653
v 2.26597 0.736412 -109.653
v 2.30696 0.721942 -109.653
v 2.34779 0.707027 -109.653
v 2.38845 0.691669 -109.653
v 2.42894 0.67587 -109.653
v 2.46926 0.659632 -109.653
v 2.5094 0.642955 -109.653
v 2.54936 0.625844 -109.653
v -0.000420285 -1.84276 -109.643
# </points>

# <faces count="700">
g patch0
f 1 2 3
f 2 4 3
f 5 6 7
f 5 7 8
f 7 9 8
f 8 9 10
f 9 11 10
f 10 11 12
f 11 13 12
f 12 13 14
f 13 15 14
f 14 15 16
f 15 17 16
f 16 17 18
f 17 19 18
f 18 19 20
f 19 21 20
f 20 21 22
f 21 23 22
f 22 23 24
f 23 25 24
f 24 25 26
f 25 27 26
f 26 27 28
f 27 29 28
f 28 29 30
f 29 31 30
f 30 31 32
f 31 33 32
f 32 33 34
f 33 35 34
f 34 35 36
f 35 37 36
f 36 37 38
f 37 39 38
f 38 39 40
f 39 41 40
f 40 41 42
f 41 43 42
f 42 43 44
f 43 45 44
f 44 45 46
f 45 47 46
f 46 47 48
f 47 49 48
f 48 49 50
f 49 51 50
f 50 51 52
f 51 53 52
f 52 53 54
f 53 55 54
f 54 55 56
f 55 57 56
f 56 57 58
f 57 59 58
f 58 59 60
f 59 61 60
f 60 61 62
f 61 63 62
f 62 63 64
f 63 65 64
f 64 65 66
f 65 67 66
f 66 67 68
f 67 69 68
f 68 69 70
f 69 71 70
f 70 71 72
f 71 73 72
f 72 73 74
f 73 75 74
f 74 75 76
f 75 77 76
f 76 77 78
f 77 79 78
f 78 79 80
f 79 81 80
f 80 81 82
f 81 83 82
f 82 83 84
f 83 85 84
f 84 85 86
f 85 87 86
f 86 87 88
f 87 89 88
f 88 89 90
f 89 91 90
f 90 91 92
f 91 93 92
f 92 93 94
f 93 95 94
f 94 95 96
f 95 97 96
f 96 97 98
f 97 99 98
f 98 99 100
f 99 101 100
f 100 101 102
f 101 103 102
f 102 103 104
f 103 105 104
f 104 105 106
f 105 107 106
f 106 107 108
f 107 109 108
f 108 109 110
f 109 111 110
f 110 111 112
f 111 113 112
f 112 113 114
f 113 115 114
f 114 115 116
f 115 117 116
f 116 117 118
f 117 119 118
f 118 119 120
f 119 121 120
f 120 121 122
f 121 123 122
f 122 123 124
f 123 125 124
f 124 125 126
f 125 127 126
f 126 127 128
f 127 129 128
f 128 129 130
f 129 131 130
f 130 131 132
f 131 133 132
f 132 133 134
f 133 135 134
f 134 135 136
f 135 137 136
f 136 137 138
f 137 139 138
f 138 139 140
f 139 141 140
f 140 141 142
f 141 143 142
f 142 143 144
f 143 145 144
f 144 145 146
f 145 147 146
f 146 147 148
f 147 149 148
f 148 149 150
f 149 151 150
f 150 151 152
f 151 153 152
f 152 153 154
f 153 155 154
f 154 155 156
f 155 157 156
f 156 157 158
f 157 159 158
f 158 159 160
f 159 161 160
f 160 161 162
f 161 163 162
f 162 163 164
f 163 165 164
f 164 165 166
f 165 167 166
f 166 167 168
f 167 169 168
f 168 169 170
f 169 171 170
f 170 171 172
f 171 173 172
f 172 173 174
f 173 175 174
f 174 175 176
f 175 177 176
f 176 177 178
f 177 179 178
f 178 179 180
f 179 181 180
f 180 181 182
f 181 183 182
f 182 183 184
f 183 185 184
f 184 185 186
f 185 187 186
f 186 187 188
f 187 189 188
f 188 189 190
f 189 191 190
f 190 191 192
f 191 193 192
f 192 193 194
f 193 195 194
f 194 195 196
f 195 197 196
f 196 197 198
f 197 199 198
f 198 199 200
f 199 201 200
f 200 201 202
f 201 203 202
f 202 203 204
f 203 205 204
f 204 205 206
f 205 207 206
f 206 207 208
f 207 209 208
f 208 209 210
f 209 211 210
f 210 211 212
f 211 213 212
f 212 213 214
f 213 215 214
f 214 215 216
f 215 217 216
f 216 217 218
f 217 219 218
f 218 219 220
f 219 221 220
f 220 221 222
f 223 224 225
f 223 225 226
f 225 227 226
f 226 227 228
f 227 229 228
f 228 229 230
f 229 231 230
f 230 231 232
f 231 233 232
f 232 233 234
f 233 235 234
f 234 235 236
f 235 237 236
f 236 237 238
f 237 239 238
f 238 239 240
f 239 241 240
f 240 241 242
f 241 243 242
f 242 243 244
f 243 245 244
f 244 245 246
f 245 247 246
f 246 247 248
f 247 249 248
f 248 249 250
f 249 251 250
f 250 251 252
f 251 253 252
f 252 253 254
f 253 255 254
f 254 255 256
f 255 257 256
f 256 257 258
f 257 259 258
f 258 259 260
f 259 261 260
f 260 261 262
f 261 6 262
f 262 6 5
f 263 264 2
f 2 265 266
f 2 267 268
f 268 269 2
f 269 270 2
f 2 270 271
f 272 273 4
f 274 223 2
f 223 226 2
f 226 228 2
f 228 230 2
f 2 230 232
f 220 222 2
f 222 275 2
f 2 275 265
f 271 276 2
f 276 277 2
f 2 277 278
f 250 252 2
f 252 254 2
f 2 254 256
f 266 279 2
f 279 280 2
f 2 280 267
f 278 281 2
f 281 282 2
f 2 282 283
f 283 284 2
f 284 285 2
f 2 285 263
f 272 4 286
f 273 287 4
f 287 288 4
f 4 288 289
f 289 290 4
f 290 291 4
f 4 291 292
f 232 234 2
f 234 236 2
f 2 236 238
f 238 240 2
f 240 242 2
f 2 242 244
f 244 246 2
f 246 248 2
f 2 248 250
f 256 258 2
f 258 260 2
f 2 260 262
f 292 293 4
f 293 294 4
f 4 294 295
f 264 296 2
f 296 297 2
f 2 297 298
f 295 299 4
f 299 300 4
f 4 300 301
f 210 212 2
f 212 214 2
f 298 302 2
f 302 303 2
f 2 303 304
f 192 194 2
f 194 196 2
f 2 196 198
f 214 216 2
f 216 218 2
f 2 218 220
f 304 305 2
f 305 306 2
f 2 306 4
f 306 307 4
f 4 307 286
f 126 128 2
f 128 130 2
f 2 130 132
f 154 156 2
f 156 158 2
f 2 158 160
f 2 166 168
f 168 170 2
f 170 172 2
f 2 172 174
f 198 200 2
f 200 202 2
f 2 202 204
f 60 62 2
f 62 64 2
f 132 134 2
f 134 136 2
f 2 136 138
f 160 162 2
f 162 164 2
f 2 164 166
f 204 206 2
f 206 208 2
f 2 208 210
f 262 5 2
f 5 8 2
f 2 8 10
f 34 36 2
f 36 38 2
f 2 38 40
f 2 52 54
f 148 2 146
f 2 144 146
f 148 150 2
f 150 152 2
f 2 152 154
f 174 176 2
f 176 178 2
f 2 178 180
f 186 188 2
f 188 190 2
f 2 190 192
f 40 42 2
f 42 44 2
f 2 44 46
f 54 56 2
f 56 58 2
f 2 58 60
f 64 66 2
f 66 68 2
f 2 68 70
f 70 72 2
f 72 74 2
f 2 74 76
f 100 102 2
f 138 140 2
f 140 142 2
f 2 142 144
f 180 182 2
f 182 184 2
f 2 184 186
f 10 12 2
f 12 14 2
f 2 14 16
f 28 30 2
f 30 32 2
f 2 32 34
f 46 48 2
f 48 50 2
f 2 50 52
f 120 122 2
f 122 124 2
f 2 124 126
f 76 78 2
f 78 80 2
f 2 80 82
f 108 110 2
f 110 112 2
f 2 112 114
f 114 116 2
f 116 118 2
f 2 118 120
f 16 18 2
f 18 20 2
f 2 20 22
f 22 24 2
f 24 26 2
f 2 26 28
f 82 84 2
f 84 86 2
f 2 86 88
f 102 104 2
f 104 106 2
f 2 106 108
f 88 90 2
f 90 92 2
f 2 92 94
f 94 96 2
f 96 98 2
f 2 98 100
f 222 221 308
f 222 308 275
f 308 309 275
f 275 309 265
f 309 310 265
f 265 310 266
f 310 311 266
f 266 311 279
f 311 312 279
f 279 312 280
f 312 313 280
f 280 313 267
f 313 314 267
f 267 314 268
f 314 315 268
f 268 315 269
f 315 316 269
f 269 316 270
f 316 317 270
f 270 317 271
f 317 318 271
f 271 318 276
f 318 319 276
f 276 319 277
f 319 320 277
f 277 320 278
f 320 321 278
f 278 321 281
f 321 322 281
f 281 322 282
f 322 323 282
f 282 323 283
f 323 324 283
f 283 324 284
f 324 325 284
f 284 325 285
f 325 326 285
f 285 326 263
f 326 327 263
f 263 327 264
f 327 328 264
f 264 328 296
f 328 329 296
f 296 329 297
f 329 330 297
f 297 330 298
f 330 331 298
f 298 331 302
f 331 332 302
f 302 332 303
f 332 333 303
f 303 333 304
f 333 334 304
f 304 334 305
f 334 335 305
f 305 335 306
f 335 336 306
f 306 336 307
f 336 337 307
f 307 337 286
f 337 338 286
f 286 338 272
f 338 339 272
f 272 339 273
f 339 340 273
f 273 340 287
f 340 341 287
f 287 341 288
f 341 342 288
f 288 342 289
f 342 343 289
f 289 343 290
f 343 344 290
f 290 344 291
f 344 345 291
f 291 345 292
f 345 346 292
f 292 346 293
f 346 347 293
f 293 347 294
f 347 348 294
f 294 348 295
f 348 349 295
f 295 349 299
f 349 350 299
f 299 350 300
f 350 351 300
f 300 351 301
f 223 274 224
f 274 352 224
f 301 351 4
f 351 3 4
f 231 229 1
f 309 308 1
f 224 352 225
f 352 1 225
f 225 1 227
f 1 229 227
f 316 315 1
f 7 6 1
f 6 261 1
f 1 261 259
f 253 251 1
f 251 249 1
f 320 319 1
f 315 314 1
f 314 313 1
f 1 313 312
f 207 1 209
f 1 211 209
f 249 247 1
f 247 245 1
f 1 245 243
f 243 241 1
f 241 239 1
f 1 239 237
f 237 235 1
f 235 233 1
f 1 233 231
f 3 351 350
f 3 344 343
f 319 318 1
f 318 317 1
f 1 317 316
f 312 311 1
f 311 310 1
f 1 310 309
f 308 221 1
f 221 219 1
f 1 219 217
f 195 193 1
f 193 191 1
f 1 191 189
f 171 169 1
f 259 257 1
f 257 255 1
f 1 255 253
f 343 342 3
f 342 341 3
f 3 341 340
f 326 325 1
f 325 324 1
f 1 324 323
f 323 322 1
f 322 321 1
f 1 321 320
f 217 215 1
f 215 213 1
f 1 213 211
f 350 349 3
f 349 348 3
f 3 348 347
f 207 205 1
f 205 203 1
f 1 203 201
f 169 167 1
f 167 165 1
f 1 165 163
f 157 155 1
f 155 153 1
f 141 139 1
f 139 137 1
f 1 137 135
f 340 339 3
f 339 338 3
f 3 338 1
f 338 337 1
f 329 1 330
f 1 331 330
f 329 328 1
f 328 327 1
f 1 327 326
f 201 199 1
f 199 197 1
f 1 197 195
f 177 175 1
f 175 173 1
f 1 173 171
f 163 161 1
f 161 159 1
f 1 159 157
f 347 346 3
f 346 345 3
f 3 345 344
f 337 336 1
f 336 335 1
f 1 335 334
f 334 333 1
f 333 332 1
f 1 332 331
f 189 187 1
f 187 185 1
f 1 185 183
f 153 151 1
f 151 149 1
f 1 149 147
f 147 145 1
f 145 143 1
f 1 143 141
f 135 133 1
f 133 131 1
f 1 131 129
f 129 127 1
f 127 125 1
f 1 125 123
f 43 41 1
f 41 39 1
f 1 39 37
f 183 181 1
f 181 179 1
f 1 179 177
f 37 35 1
f 35 33 1
f 1 33 31
f 73 71 1
f 71 69 1
f 1 69 67
f 67 65 1
f 65 63 1
f 1 63 61
f 61 59 1
f 59 57 1
f 1 57 55
f 55 53 1
f 53 51 1
f 1 51 49
f 31 29 1
f 29 27 1
f 1 27 25
f 123 121 1
f 121 119 1
f 1 119 117
f 79 77 1
f 77 75 1
f 1 75 73
f 49 47 1
f 47 45 1
f 1 45 43
f 117 115 1
f 115 113 1
f 1 113 111
f 99 97 1
f 25 23 1
f 23 21 1
f 1 21 19
f 19 17 1
f 17 15 1
f 1 15 13
f 13 11 1
f 11 9 1
f 1 9 7
f 111 109 1
f 109 107 1
f 1 107 105
f 85 83 1
f 83 81 1
f 1 81 79
f 105 103 1
f 103 101 1
f 1 101 99
f 91 89 1
f 89 87 1
f 1 87 85
f 97 95 1
f 95 93 1
f 1 93 91
f 1 352 2
f 352 274 2
# </faces>
