# Wavefront OBJ file written 2025-07-31T09:56:44
o Asse_1

# points : 352
# faces  : 700
# zones  : 1
#   0  patch0  (nFaces: 700)

# <points count="352">
v -0.000420285 1.69006 -9.67714
v -0.000420285 1.51669 -21.6765
v 2.54936 1.69006 -9.67714
v 2.54936 1.51669 -21.6765
v -0.502404 0.280059 -21.6715
v -0.502404 0.328713 -9.67162
v -0.513734 0.352124 -9.67172
v -0.513734 0.30347 -21.6716
v -0.524638 0.375738 -9.67181
v -0.524638 0.327084 -21.6717
v -0.535111 0.399545 -9.67191
v -0.535111 0.350891 -21.6718
v -0.545149 0.423539 -9.67201
v -0.545149 0.374885 -21.6719
v -0.55475 0.447712 -9.6721
v -0.55475 0.399058 -21.672
v -0.56391 0.472054 -9.6722
v -0.56391 0.4234 -21.6721
v -0.572626 0.49656 -9.6723
v -0.572626 0.447906 -21.6722
v -0.580896 0.521219 -9.6724
v -0.580896 0.472565 -21.6723
v -0.588716 0.546025 -9.6725
v -0.588716 0.497371 -21.6724
v -0.596085 0.570968 -9.6726
v -0.596085 0.522314 -21.6725
v -0.602999 0.596042 -9.6727
v -0.602999 0.547388 -21.6726
v -0.609456 0.621237 -9.67281
v -0.609456 0.572583 -21.6727
v -0.615455 0.646545 -9.67291
v -0.615455 0.597891 -21.6728
v -0.620992 0.671958 -9.67301
v -0.620992 0.623304 -21.6729
v -0.626068 0.697467 -9.67312
v -0.626068 0.648813 -21.673
v -0.630678 0.723064 -9.67322
v -0.630678 0.67441 -21.6731
v -0.634824 0.748741 -9.67332
v -0.634824 0.700087 -21.6732
v -0.638501 0.774489 -9.67343
v -0.638501 0.725835 -21.6733
v -0.641711 0.800299 -9.67353
v -0.641711 0.751645 -21.6734
v -0.644451 0.826163 -9.67364
v -0.644451 0.777509 -21.6735
v -0.646721 0.852073 -9.67374
v -0.646721 0.803419 -21.6736
v -0.64852 0.87802 -9.67385
v -0.64852 0.829366 -21.6737
v -0.649847 0.903996 -9.67395
v -0.649847 0.855342 -21.6739
v -0.650702 0.929991 -9.67406
v -0.650702 0.881337 -21.674
v -0.651084 0.955997 -9.67416
v -0.651084 0.907343 -21.6741
v -0.650994 0.982006 -9.67427
v -0.650994 0.933352 -21.6742
v -0.650431 1.00801 -9.67438
v -0.650431 0.959355 -21.6743
v -0.649397 1.034 -9.67448
v -0.649397 0.985344 -21.6744
v -0.64789 1.05996 -9.67459
v -0.64789 1.01131 -21.6745
v -0.645911 1.0859 -9.67469
v -0.645911 1.03724 -21.6746
v -0.643462 1.11179 -9.6748
v -0.643462 1.06314 -21.6747
v -0.640543 1.13764 -9.6749
v -0.640543 1.08898 -21.6748
v -0.637155 1.16342 -9.675
v -0.637155 1.11477 -21.6749
v -0.633299 1.18914 -9.67511
v -0.633299 1.14049 -21.675
v -0.628976 1.21479 -9.67521
v -0.628976 1.16614 -21.6751
v -0.624188 1.24036 -9.67532
v -0.624188 1.1917 -21.6752
v -0.618936 1.26583 -9.67542
v -0.618936 1.21718 -21.6753
v -0.613222 1.2912 -9.67552
v -0.613222 1.24255 -21.6754
v -0.607049 1.31647 -9.67563
v -0.607049 1.26782 -21.6755
v -0.600417 1.34162 -9.67573
v -0.600417 1.29297 -21.6756
v -0.593329 1.36664 -9.67583
v -0.593329 1.31799 -21.6757
v -0.585789 1.39154 -9.67593
v -0.585789 1.34288 -21.6758
v -0.577797 1.41629 -9.67603
v -0.577797 1.36763 -21.6759
v -0.569356 1.44089 -9.67613
v -0.569356 1.39224 -21.676
v -0.560471 1.46533 -9.67623
v -0.560471 1.41668 -21.6761
v -0.551142 1.48961 -9.67633
v -0.551142 1.44096 -21.6762
v -0.541374 1.51372 -9.67643
v -0.541374 1.46506 -21.6763
v -0.53117 1.53764 -9.67652
v -0.53117 1.48899 -21.6764
v -0.520532 1.56138 -9.67662
v -0.520532 1.51272 -21.6765
v -0.509466 1.58491 -9.67671
v -0.509466 1.53626 -21.6766
v -0.497973 1.60825 -9.67681
v -0.497973 1.55959 -21.6767
v -0.486059 1.63137 -9.6769
v -0.486059 1.58271 -21.6768
v -0.473726 1.65427 -9.677
v -0.473726 1.60561 -21.6769
v -0.46098 1.67694 -9.67709
v -0.46098 1.62828 -21.677
v -0.447823 1.69937 -9.67718
v -0.447823 1.65072 -21.6771
v -0.434262 1.72157 -9.67727
v -0.434262 1.67291 -21.6772
v -0.420299 1.74351 -9.67736
v -0.420299 1.69486 -21.6773
v -0.40594 1.7652 -9.67745
v -0.40594 1.71654 -21.6773
v -0.391189 1.78662 -9.67753
v -0.391189 1.73796 -21.6774
v -0.376052 1.80777 -9.67762
v -0.376052 1.75912 -21.6775
v -0.360532 1.82864 -9.6777
v -0.360532 1.77999 -21.6776
v -0.344637 1.84923 -9.67779
v -0.344637 1.80057 -21.6777
v -0.328369 1.86952 -9.67787
v -0.328369 1.82087 -21.6778
v -0.311736 1.88952 -9.67795
v -0.311736 1.84086 -21.6779
v -0.294742 1.90921 -9.67803
v -0.294742 1.86055 -21.6779
v -0.277394 1.92859 -9.67811
v -0.277394 1.87993 -21.678
v -0.259696 1.94764 -9.67818
v -0.259696 1.89899 -21.6781
v -0.241655 1.96638 -9.67826
v -0.241655 1.91773 -21.6782
v -0.223276 1.98478 -9.67834
v -0.223276 1.93613 -21.6782
v -0.204566 2.00285 -9.67841
v -0.204566 1.9542 -21.6783
v -0.185531 2.02058 -9.67848
v -0.185531 1.97192 -21.6784
v -0.166177 2.03795 -9.67855
v -0.166177 1.9893 -21.6785
v -0.146511 2.05497 -9.67862
v -0.146511 2.00632 -21.6785
v -0.126539 2.07163 -9.67869
v -0.126539 2.02298 -21.6786
v -0.106267 2.08793 -9.67875
v -0.106267 2.03927 -21.6787
v -0.0857023 2.10385 -9.67882
v -0.0857023 2.0552 -21.6787
v -0.0648519 2.1194 -9.67888
v -0.0648519 2.07075 -21.6788
v -0.0437225 2.13457 -9.67894
v -0.0437225 2.08591 -21.6788
v -0.022321 2.14935 -9.679
v -0.022321 2.10069 -21.6789
v -0.000654591 2.16374 -9.67906
v -0.000654591 2.11508 -21.679
v 0.0212697 2.17773 -9.67912
v 0.0212697 2.12908 -21.679
v 0.0434446 2.19132 -9.67917
v 0.0434446 2.14267 -21.6791
v 0.0658628 2.20451 -9.67923
v 0.0658628 2.15586 -21.6791
v 0.0885168 2.21729 -9.67928
v 0.0885168 2.16864 -21.6792
v 0.111399 2.22965 -9.67933
v 0.111399 2.181 -21.6792
v 0.134503 2.2416 -9.67938
v 0.134503 2.19295 -21.6793
v 0.157819 2.25313 -9.67942
v 0.157819 2.20447 -21.6793
v 0.181341 2.26422 -9.67947
v 0.181341 2.21557 -21.6794
v 0.205061 2.27489 -9.67951
v 0.205061 2.22624 -21.6794
v 0.228971 2.28513 -9.67955
v 0.228971 2.23648 -21.6795
v 0.253063 2.29493 -9.67959
v 0.253063 2.24628 -21.6795
v 0.277329 2.3043 -9.67963
v 0.277329 2.25564 -21.6795
v 0.301761 2.31322 -9.67967
v 0.301761 2.26456 -21.6796
v 0.326351 2.32169 -9.6797
v 0.326351 2.27304 -21.6796
v 0.351091 2.32972 -9.67973
v 0.351091 2.28106 -21.6796
v 0.375972 2.33729 -9.67976
v 0.375972 2.28864 -21.6797
v 0.400988 2.34442 -9.67979
v 0.400988 2.29576 -21.6797
v 0.426128 2.35108 -9.67982
v 0.426128 2.30243 -21.6797
v 0.451385 2.35729 -9.67985
v 0.451385 2.30864 -21.6797
v 0.476752 2.36304 -9.67987
v 0.476752 2.31439 -21.6798
v 0.502218 2.36833 -9.67989
v 0.502218 2.31967 -21.6798
v 0.527776 2.37315 -9.67991
v 0.527776 2.3245 -21.6798
v 0.553418 2.37751 -9.67993
v 0.553418 2.32886 -21.6798
v 0.579134 2.3814 -9.67994
v 0.579134 2.33275 -21.6798
v 0.604917 2.38483 -9.67996
v 0.604917 2.33617 -21.6799
v 0.630758 2.38778 -9.67997
v 0.630758 2.33913 -21.6799
v 0.656648 2.39027 -9.67998
v 0.656648 2.34161 -21.6799
v 0.68258 2.39228 -9.67999
v 0.68258 2.34363 -21.6799
v -0.0385203 -0.44697 -21.6686
v -0.0385203 -0.398316 -9.66867
v -0.0653709 -0.364468 -9.66881
v -0.0653709 -0.413122 -21.6687
v -0.0918541 -0.330332 -9.66895
v -0.0918541 -0.378986 -21.6688
v -0.117967 -0.295911 -9.66909
v -0.117967 -0.344565 -21.669
v -0.143706 -0.261211 -9.66923
v -0.143706 -0.309865 -21.6691
v -0.169068 -0.226234 -9.66937
v -0.169068 -0.274888 -21.6693
v -0.194051 -0.190985 -9.66951
v -0.194051 -0.239639 -21.6694
v -0.218651 -0.155468 -9.66966
v -0.218651 -0.204122 -21.6696
v -0.242866 -0.119687 -9.6698
v -0.242866 -0.168341 -21.6697
v -0.266693 -0.0836461 -9.66995
v -0.266693 -0.1323 -21.6698
v -0.290129 -0.04735 -9.6701
v -0.290129 -0.096004 -21.67
v -0.313171 -0.0108028 -9.67024
v -0.313171 -0.0594568 -21.6701
v -0.335817 0.0259914 -9.67039
v -0.335817 -0.0226627 -21.6703
v -0.358063 0.0630282 -9.67054
v -0.358063 0.0143742 -21.6704
v -0.379908 0.100303 -9.67069
v -0.379908 0.0516493 -21.6706
v -0.401349 0.137812 -9.67085
v -0.401349 0.0891584 -21.6707
v -0.422383 0.175551 -9.671
v -0.422383 0.126897 -21.6709
v -0.443008 0.213515 -9.67115
v -0.443008 0.164861 -21.6711
v -0.463221 0.251699 -9.67131
v -0.463221 0.203045 -21.6712
v -0.483021 0.2901 -9.67146
v -0.483021 0.241446 -21.6714
v 1.50648 2.31489 -21.6798
v 1.5495 2.30867 -21.6797
v 0.769368 2.34863 -21.6799
v 0.812797 2.35042 -21.6799
v 0.943167 2.35297 -21.6799
v 0.986634 2.35287 -21.6799
v 1.0301 2.3523 -21.6799
v 1.07355 2.35126 -21.6799
v 1.11699 2.34974 -21.6799
v 2.01696 2.20958 -21.6793
v 2.05881 2.19782 -21.6793
v -0.000420285 -0.44697 -21.6686
v 0.72596 2.34636 -21.6799
v 1.16041 2.34775 -21.6799
v 1.20381 2.34529 -21.6799
v 1.24718 2.34236 -21.6799
v 0.856244 2.35174 -21.6799
v 0.899702 2.35259 -21.6799
v 1.29051 2.33896 -21.6799
v 1.3338 2.33508 -21.6799
v 1.37705 2.33074 -21.6798
v 1.42025 2.32593 -21.6798
v 1.4634 2.32064 -21.6798
v 1.97499 2.22089 -21.6794
v 2.10052 2.18559 -21.6792
v 2.1421 2.17292 -21.6792
v 2.18354 2.1598 -21.6791
v 2.22483 2.14622 -21.6791
v 2.26597 2.1322 -21.679
v 2.30696 2.11773 -21.679
v 2.34779 2.10281 -21.6789
v 2.38845 2.08746 -21.6789
v 2.42894 2.07166 -21.6788
v 1.59245 2.30198 -21.6797
v 1.63532 2.29482 -21.6797
v 1.67812 2.2872 -21.6797
v 2.46926 2.05542 -21.6787
v 2.5094 2.03874 -21.6787
v 2.54936 2.02163 -21.6786
v 1.72082 2.27912 -21.6796
v 1.76344 2.27057 -21.6796
v 1.80596 2.26155 -21.6796
v 1.84838 2.25208 -21.6795
v 1.8907 2.24214 -21.6795
v 1.93291 2.23175 -21.6794
v 0.72596 2.39502 -9.68
v 0.769368 2.39728 -9.68001
v 0.812797 2.39908 -9.68002
v 0.856244 2.4004 -9.68002
v 0.899702 2.40124 -9.68002
v 0.943167 2.40162 -9.68003
v 0.986634 2.40152 -9.68003
v 1.0301 2.40095 -9.68002
v 1.07355 2.39991 -9.68002
v 1.11699 2.39839 -9.68001
v 1.16041 2.39641 -9.68
v 1.20381 2.39395 -9.67999
v 1.24718 2.39102 -9.67998
v 1.29051 2.38761 -9.67997
v 1.3338 2.38374 -9.67995
v 1.37705 2.37939 -9.67994
v 1.42025 2.37458 -9.67992
v 1.4634 2.3693 -9.67989
v 1.50648 2.36354 -9.67987
v 1.5495 2.35732 -9.67985
v 1.59245 2.35063 -9.67982
v 1.63532 2.34348 -9.67979
v 1.67812 2.33586 -9.67976
v 1.72082 2.32777 -9.67973
v 1.76344 2.31922 -9.67969
v 1.80596 2.31021 -9.67966
v 1.84838 2.30073 -9.67962
v 1.8907 2.2908 -9.67958
v 1.93291 2.2804 -9.67953
v 1.97499 2.26955 -9.67949
v 2.01696 2.25824 -9.67944
v 2.05881 2.24647 -9.6794
v 2.10052 2.23425 -9.67935
v 2.1421 2.22158 -9.6793
v 2.18354 2.20845 -9.67924
v 2.22483 2.19487 -9.67919
v 2.26597 2.18085 -9.67913
v 2.30696 2.16638 -9.67907
v 2.34779 2.15147 -9.67901
v 2.38845 2.13611 -9.67895
v 2.42894 2.12031 -9.67888
v 2.46926 2.10407 -9.67882
v 2.5094 2.0874 -9.67875
v 2.54936 2.07028 -9.67868
v -0.000420285 -0.398316 -9.66867
# </points>

# <faces count="700">
g patch0
f 1 2 3
f 2 4 3
f 5 6 7
f 5 7 8
f 7 9 8
f 8 9 10
f 9 11 10
f 10 11 12
f 11 13 12
f 12 13 14
f 13 15 14
f 14 15 16
f 15 17 16
f 16 17 18
f 17 19 18
f 18 19 20
f 19 21 20
f 20 21 22
f 21 23 22
f 22 23 24
f 23 25 24
f 24 25 26
f 25 27 26
f 26 27 28
f 27 29 28
f 28 29 30
f 29 31 30
f 30 31 32
f 31 33 32
f 32 33 34
f 33 35 34
f 34 35 36
f 35 37 36
f 36 37 38
f 37 39 38
f 38 39 40
f 39 41 40
f 40 41 42
f 41 43 42
f 42 43 44
f 43 45 44
f 44 45 46
f 45 47 46
f 46 47 48
f 47 49 48
f 48 49 50
f 49 51 50
f 50 51 52
f 51 53 52
f 52 53 54
f 53 55 54
f 54 55 56
f 55 57 56
f 56 57 58
f 57 59 58
f 58 59 60
f 59 61 60
f 60 61 62
f 61 63 62
f 62 63 64
f 63 65 64
f 64 65 66
f 65 67 66
f 66 67 68
f 67 69 68
f 68 69 70
f 69 71 70
f 70 71 72
f 71 73 72
f 72 73 74
f 73 75 74
f 74 75 76
f 75 77 76
f 76 77 78
f 77 79 78
f 78 79 80
f 79 81 80
f 80 81 82
f 81 83 82
f 82 83 84
f 83 85 84
f 84 85 86
f 85 87 86
f 86 87 88
f 87 89 88
f 88 89 90
f 89 91 90
f 90 91 92
f 91 93 92
f 92 93 94
f 93 95 94
f 94 95 96
f 95 97 96
f 96 97 98
f 97 99 98
f 98 99 100
f 99 101 100
f 100 101 102
f 101 103 102
f 102 103 104
f 103 105 104
f 104 105 106
f 105 107 106
f 106 107 108
f 107 109 108
f 108 109 110
f 109 111 110
f 110 111 112
f 111 113 112
f 112 113 114
f 113 115 114
f 114 115 116
f 115 117 116
f 116 117 118
f 117 119 118
f 118 119 120
f 119 121 120
f 120 121 122
f 121 123 122
f 122 123 124
f 123 125 124
f 124 125 126
f 125 127 126
f 126 127 128
f 127 129 128
f 128 129 130
f 129 131 130
f 130 131 132
f 131 133 132
f 132 133 134
f 133 135 134
f 134 135 136
f 135 137 136
f 136 137 138
f 137 139 138
f 138 139 140
f 139 141 140
f 140 141 142
f 141 143 142
f 142 143 144
f 143 145 144
f 144 145 146
f 145 147 146
f 146 147 148
f 147 149 148
f 148 149 150
f 149 151 150
f 150 151 152
f 151 153 152
f 152 153 154
f 153 155 154
f 154 155 156
f 155 157 156
f 156 157 158
f 157 159 158
f 158 159 160
f 159 161 160
f 160 161 162
f 161 163 162
f 162 163 164
f 163 165 164
f 164 165 166
f 165 167 166
f 166 167 168
f 167 169 168
f 168 169 170
f 169 171 170
f 170 171 172
f 171 173 172
f 172 173 174
f 173 175 174
f 174 175 176
f 175 177 176
f 176 177 178
f 177 179 178
f 178 179 180
f 179 181 180
f 180 181 182
f 181 183 182
f 182 183 184
f 183 185 184
f 184 185 186
f 185 187 186
f 186 187 188
f 187 189 188
f 188 189 190
f 189 191 190
f 190 191 192
f 191 193 192
f 192 193 194
f 193 195 194
f 194 195 196
f 195 197 196
f 196 197 198
f 197 199 198
f 198 199 200
f 199 201 200
f 200 201 202
f 201 203 202
f 202 203 204
f 203 205 204
f 204 205 206
f 205 207 206
f 206 207 208
f 207 209 208
f 208 209 210
f 209 211 210
f 210 211 212
f 211 213 212
f 212 213 214
f 213 215 214
f 214 215 216
f 215 217 216
f 216 217 218
f 217 219 218
f 218 219 220
f 219 221 220
f 220 221 222
f 223 224 225
f 223 225 226
f 225 227 226
f 226 227 228
f 227 229 228
f 228 229 230
f 229 231 230
f 230 231 232
f 231 233 232
f 232 233 234
f 233 235 234
f 234 235 236
f 235 237 236
f 236 237 238
f 237 239 238
f 238 239 240
f 239 241 240
f 240 241 242
f 241 243 242
f 242 243 244
f 243 245 244
f 244 245 246
f 245 247 246
f 246 247 248
f 247 249 248
f 248 249 250
f 249 251 250
f 250 251 252
f 251 253 252
f 252 253 254
f 253 255 254
f 254 255 256
f 255 257 256
f 256 257 258
f 257 259 258
f 258 259 260
f 259 261 260
f 260 261 262
f 261 6 262
f 262 6 5
f 263 264 2
f 2 265 266
f 2 267 268
f 268 269 2
f 269 270 2
f 2 270 271
f 272 273 4
f 274 223 2
f 223 226 2
f 226 228 2
f 228 230 2
f 2 230 232
f 220 222 2
f 222 275 2
f 2 275 265
f 271 276 2
f 276 277 2
f 2 277 278
f 250 252 2
f 252 254 2
f 2 254 256
f 266 279 2
f 279 280 2
f 2 280 267
f 278 281 2
f 281 282 2
f 2 282 283
f 283 284 2
f 284 285 2
f 2 285 263
f 272 4 286
f 273 287 4
f 287 288 4
f 4 288 289
f 289 290 4
f 290 291 4
f 4 291 292
f 232 234 2
f 234 236 2
f 2 236 238
f 238 240 2
f 240 242 2
f 2 242 244
f 244 246 2
f 246 248 2
f 2 248 250
f 256 258 2
f 258 260 2
f 2 260 262
f 292 293 4
f 293 294 4
f 4 294 295
f 264 296 2
f 296 297 2
f 2 297 298
f 295 299 4
f 299 300 4
f 4 300 301
f 210 212 2
f 212 214 2
f 298 302 2
f 302 303 2
f 2 303 304
f 192 194 2
f 194 196 2
f 2 196 198
f 214 216 2
f 216 218 2
f 2 218 220
f 304 305 2
f 305 306 2
f 2 306 4
f 306 307 4
f 4 307 286
f 126 128 2
f 128 130 2
f 2 130 132
f 154 156 2
f 156 158 2
f 2 158 160
f 2 166 168
f 168 170 2
f 170 172 2
f 2 172 174
f 198 200 2
f 200 202 2
f 2 202 204
f 60 62 2
f 62 64 2
f 132 134 2
f 134 136 2
f 2 136 138
f 160 162 2
f 162 164 2
f 2 164 166
f 204 206 2
f 206 208 2
f 2 208 210
f 262 5 2
f 5 8 2
f 2 8 10
f 34 36 2
f 36 38 2
f 2 38 40
f 2 52 54
f 148 2 146
f 2 144 146
f 148 150 2
f 150 152 2
f 2 152 154
f 174 176 2
f 176 178 2
f 2 178 180
f 186 188 2
f 188 190 2
f 2 190 192
f 40 42 2
f 42 44 2
f 2 44 46
f 54 56 2
f 56 58 2
f 2 58 60
f 64 66 2
f 66 68 2
f 2 68 70
f 70 72 2
f 72 74 2
f 2 74 76
f 100 102 2
f 138 140 2
f 140 142 2
f 2 142 144
f 180 182 2
f 182 184 2
f 2 184 186
f 10 12 2
f 12 14 2
f 2 14 16
f 28 30 2
f 30 32 2
f 2 32 34
f 46 48 2
f 48 50 2
f 2 50 52
f 120 122 2
f 122 124 2
f 2 124 126
f 76 78 2
f 78 80 2
f 2 80 82
f 108 110 2
f 110 112 2
f 2 112 114
f 114 116 2
f 116 118 2
f 2 118 120
f 16 18 2
f 18 20 2
f 2 20 22
f 22 24 2
f 24 26 2
f 2 26 28
f 82 84 2
f 84 86 2
f 2 86 88
f 102 104 2
f 104 106 2
f 2 106 108
f 88 90 2
f 90 92 2
f 2 92 94
f 94 96 2
f 96 98 2
f 2 98 100
f 222 221 308
f 222 308 275
f 308 309 275
f 275 309 265
f 309 310 265
f 265 310 266
f 310 311 266
f 266 311 279
f 311 312 279
f 279 312 280
f 312 313 280
f 280 313 267
f 313 314 267
f 267 314 268
f 314 315 268
f 268 315 269
f 315 316 269
f 269 316 270
f 316 317 270
f 270 317 271
f 317 318 271
f 271 318 276
f 318 319 276
f 276 319 277
f 319 320 277
f 277 320 278
f 320 321 278
f 278 321 281
f 321 322 281
f 281 322 282
f 322 323 282
f 282 323 283
f 323 324 283
f 283 324 284
f 324 325 284
f 284 325 285
f 325 326 285
f 285 326 263
f 326 327 263
f 263 327 264
f 327 328 264
f 264 328 296
f 328 329 296
f 296 329 297
f 329 330 297
f 297 330 298
f 330 331 298
f 298 331 302
f 331 332 302
f 302 332 303
f 332 333 303
f 303 333 304
f 333 334 304
f 304 334 305
f 334 335 305
f 305 335 306
f 335 336 306
f 306 336 307
f 336 337 307
f 307 337 286
f 337 338 286
f 286 338 272
f 338 339 272
f 272 339 273
f 339 340 273
f 273 340 287
f 340 341 287
f 287 341 288
f 341 342 288
f 288 342 289
f 342 343 289
f 289 343 290
f 343 344 290
f 290 344 291
f 344 345 291
f 291 345 292
f 345 346 292
f 292 346 293
f 346 347 293
f 293 347 294
f 347 348 294
f 294 348 295
f 348 349 295
f 295 349 299
f 349 350 299
f 299 350 300
f 350 351 300
f 300 351 301
f 223 274 224
f 274 352 224
f 301 351 4
f 351 3 4
f 231 229 1
f 309 308 1
f 224 352 225
f 352 1 225
f 225 1 227
f 1 229 227
f 316 315 1
f 7 6 1
f 6 261 1
f 1 261 259
f 253 251 1
f 251 249 1
f 320 319 1
f 315 314 1
f 314 313 1
f 1 313 312
f 207 1 209
f 1 211 209
f 249 247 1
f 247 245 1
f 1 245 243
f 243 241 1
f 241 239 1
f 1 239 237
f 237 235 1
f 235 233 1
f 1 233 231
f 3 351 350
f 3 344 343
f 319 318 1
f 318 317 1
f 1 317 316
f 312 311 1
f 311 310 1
f 1 310 309
f 308 221 1
f 221 219 1
f 1 219 217
f 195 193 1
f 193 191 1
f 1 191 189
f 171 169 1
f 259 257 1
f 257 255 1
f 1 255 253
f 343 342 3
f 342 341 3
f 3 341 340
f 326 325 1
f 325 324 1
f 1 324 323
f 323 322 1
f 322 321 1
f 1 321 320
f 217 215 1
f 215 213 1
f 1 213 211
f 350 349 3
f 349 348 3
f 3 348 347
f 207 205 1
f 205 203 1
f 1 203 201
f 169 167 1
f 167 165 1
f 1 165 163
f 157 155 1
f 155 153 1
f 141 139 1
f 139 137 1
f 1 137 135
f 340 339 3
f 339 338 3
f 3 338 1
f 338 337 1
f 329 1 330
f 1 331 330
f 329 328 1
f 328 327 1
f 1 327 326
f 201 199 1
f 199 197 1
f 1 197 195
f 177 175 1
f 175 173 1
f 1 173 171
f 163 161 1
f 161 159 1
f 1 159 157
f 347 346 3
f 346 345 3
f 3 345 344
f 337 336 1
f 336 335 1
f 1 335 334
f 334 333 1
f 333 332 1
f 1 332 331
f 189 187 1
f 187 185 1
f 1 185 183
f 153 151 1
f 151 149 1
f 1 149 147
f 147 145 1
f 145 143 1
f 1 143 141
f 135 133 1
f 133 131 1
f 1 131 129
f 129 127 1
f 127 125 1
f 1 125 123
f 43 41 1
f 41 39 1
f 1 39 37
f 183 181 1
f 181 179 1
f 1 179 177
f 37 35 1
f 35 33 1
f 1 33 31
f 73 71 1
f 71 69 1
f 1 69 67
f 67 65 1
f 65 63 1
f 1 63 61
f 61 59 1
f 59 57 1
f 1 57 55
f 55 53 1
f 53 51 1
f 1 51 49
f 31 29 1
f 29 27 1
f 1 27 25
f 123 121 1
f 121 119 1
f 1 119 117
f 79 77 1
f 77 75 1
f 1 75 73
f 49 47 1
f 47 45 1
f 1 45 43
f 117 115 1
f 115 113 1
f 1 113 111
f 99 97 1
f 25 23 1
f 23 21 1
f 1 21 19
f 19 17 1
f 17 15 1
f 1 15 13
f 13 11 1
f 11 9 1
f 1 9 7
f 111 109 1
f 109 107 1
f 1 107 105
f 85 83 1
f 83 81 1
f 1 81 79
f 105 103 1
f 103 101 1
f 1 101 99
f 91 89 1
f 89 87 1
f 1 87 85
f 97 95 1
f 95 93 1
f 1 93 91
f 1 352 2
f 352 274 2
# </faces>
